# WaveFront *.obj file (generated by Autodesk ATF)

mtllib T2601_Conn.mtl

g Solide1

v -7.100610 0.000000 0.000000
v -7.100610 0.000000 3.000000
v -7.070777 -0.348512 0.000000
v -7.070777 -0.348512 3.000000
v -7.070777 0.348512 0.000000
v -7.070777 0.348512 3.000000
v -6.982147 -0.686884 0.000000
v -6.982147 -0.686884 3.000000
v -6.982147 0.686884 0.000000
v -6.982147 0.686884 3.000000
v -6.837298 -1.005270 0.000000
v -6.837298 -1.005270 3.000000
v -6.837298 1.005270 0.000000
v -6.837298 1.005270 3.000000
v -6.640444 -1.294406 0.000000
v -6.640444 -1.294406 3.000000
v -6.640444 1.294406 0.000000
v -6.640444 1.294406 3.000000
v -6.397315 -1.545880 0.000000
v -6.397315 -1.545880 3.000000
v -6.397315 1.545880 0.000000
v -6.397315 1.545880 3.000000
v -6.114983 -1.752373 0.000000
v -6.114983 -1.752373 3.000000
v -6.114983 1.752373 0.000000
v -6.114983 1.752373 3.000000
v -5.801664 -1.907879 0.000000
v -5.801664 -1.907879 3.000000
v -5.801664 1.907879 0.000000
v -5.801664 1.907879 3.000000
v -5.466474 -2.007872 0.000000
v -5.466474 -2.007872 3.000000
v -5.466474 2.007872 0.000000
v -5.466474 2.007872 3.000000
v -5.119166 -2.049443 0.000000
v -5.119166 -2.049443 3.000000
v -5.119166 2.049443 0.000000
v -5.119166 2.049443 3.000000
v -4.769846 -2.031382 0.000000
v -4.769846 -2.031382 3.000000
v -4.769846 2.031382 0.000000
v -4.769846 2.031382 3.000000
v -4.428677 -1.954215 0.000000
v -4.428677 -1.954215 3.000000
v -4.428677 1.954215 0.000000
v -4.428677 1.954215 3.000000
v -4.105587 -1.820188 0.000000
v -4.105587 -1.820188 3.000000
v -4.105587 1.820188 0.000000
v -4.105587 1.820188 3.000000
v -3.809975 -1.633199 0.000000
v -3.809975 -1.633199 3.000000
v -3.809975 1.633199 0.000000
v -3.809975 1.633199 3.000000
v -3.643319 -1.533035 0.000000
v -3.643319 -1.533035 3.000000
v -3.643319 1.533035 0.000000
v -3.643319 1.533035 3.000000
v -3.459039 -1.471004 0.000000
v -3.459039 -1.471004 3.000000
v -3.459039 1.471004 0.000000
v -3.459039 1.471004 3.000000
v -3.265736 -1.450000 0.000000
v -3.265736 -1.450000 3.000000
v -3.265736 1.450000 0.000000
v -3.265736 1.450000 3.000000
v 3.265736 -1.450000 0.000000
v 3.265736 -1.450000 3.000000
v 3.265736 1.450000 0.000000
v 3.265736 1.450000 3.000000
v 3.459039 -1.471004 0.000000
v 3.459039 -1.471004 3.000000
v 3.459039 1.471004 0.000000
v 3.459039 1.471004 3.000000
v 3.643319 -1.533035 0.000000
v 3.643319 -1.533035 3.000000
v 3.643319 1.533035 0.000000
v 3.643319 1.533035 3.000000
v 3.809975 -1.633199 0.000000
v 3.809975 -1.633199 3.000000
v 3.809975 1.633199 0.000000
v 3.809975 1.633199 3.000000
v 4.105587 -1.820188 0.000000
v 4.105587 -1.820188 3.000000
v 4.105587 1.820188 0.000000
v 4.105587 1.820188 3.000000
v 4.428677 -1.954215 0.000000
v 4.428677 -1.954215 3.000000
v 4.428677 1.954215 0.000000
v 4.428677 1.954215 3.000000
v 4.769846 -2.031382 0.000000
v 4.769846 -2.031382 3.000000
v 4.769846 2.031382 0.000000
v 4.769846 2.031382 3.000000
v 5.119166 -2.049443 0.000000
v 5.119166 -2.049443 3.000000
v 5.119166 2.049443 0.000000
v 5.119166 2.049443 3.000000
v 5.466474 -2.007872 0.000000
v 5.466474 -2.007872 3.000000
v 5.466474 2.007872 0.000000
v 5.466474 2.007872 3.000000
v 5.801664 -1.907879 0.000000
v 5.801664 -1.907879 3.000000
v 5.801664 1.907879 0.000000
v 5.801664 1.907879 3.000000
v 6.114983 -1.752373 0.000000
v 6.114983 -1.752373 3.000000
v 6.114983 1.752373 0.000000
v 6.114983 1.752373 3.000000
v 6.397315 -1.545880 0.000000
v 6.397315 -1.545880 3.000000
v 6.397315 1.545880 0.000000
v 6.397315 1.545880 3.000000
v 6.640444 -1.294406 0.000000
v 6.640444 -1.294406 3.000000
v 6.640444 1.294406 0.000000
v 6.640444 1.294406 3.000000
v 6.837298 -1.005270 0.000000
v 6.837298 -1.005270 3.000000
v 6.837298 1.005270 0.000000
v 6.837298 1.005270 3.000000
v 6.982147 -0.686884 0.000000
v 6.982147 -0.686884 3.000000
v 6.982147 0.686884 0.000000
v 6.982147 0.686884 3.000000
v 7.070777 -0.348512 0.000000
v 7.070777 -0.348512 3.000000
v 7.070777 0.348512 0.000000
v 7.070777 0.348512 3.000000
v 7.100610 0.000000 0.000000
v 7.100610 0.000000 3.000000
vt 0.000000 0.029223 0.000000
vt 0.000000 0.009741 0.000000
vt 0.000000 -0.009741 0.000000
vt 0.000000 -0.029223 0.000000
vt 0.300000 -0.029223 0.000000
vt 0.300000 -0.009741 0.000000
vt 0.300000 0.009741 0.000000
vt 0.300000 0.029223 0.000000
vt -0.300000 0.027888 0.000000
vt -0.000000 0.027888 0.000000
vt -0.000000 0.062909 0.000000
vt -0.000000 0.097930 0.000000
vt -0.000000 0.132951 0.000000
vt -0.000000 0.167972 0.000000
vt -0.000000 0.202994 0.000000
vt -0.000000 0.238015 0.000000
vt -0.000000 0.273036 0.000000
vt -0.000000 0.308057 0.000000
vt -0.000000 0.343079 0.000000
vt -0.000000 0.378100 0.000000
vt -0.000000 0.413121 0.000000
vt -0.000000 0.448142 0.000000
vt -0.000000 0.483164 0.000000
vt -0.000000 0.518185 0.000000
vt -0.000000 0.553206 0.000000
vt -0.000000 0.588227 0.000000
vt -0.000000 0.623248 0.000000
vt -0.000000 0.658270 0.000000
vt -0.000000 0.693291 0.000000
vt -0.000000 0.728312 0.000000
vt -0.000000 0.763333 0.000000
vt -0.000000 0.798355 0.000000
vt -0.000000 0.833376 0.000000
vt -0.000000 0.868397 0.000000
vt -0.000000 0.903418 0.000000
vt -0.000000 0.938440 0.000000
vt -0.300000 0.938440 0.000000
vt -0.300000 0.903418 0.000000
vt -0.300000 0.868397 0.000000
vt -0.300000 0.833376 0.000000
vt -0.300000 0.798355 0.000000
vt -0.300000 0.763333 0.000000
vt -0.300000 0.728312 0.000000
vt -0.300000 0.693291 0.000000
vt -0.300000 0.658270 0.000000
vt -0.300000 0.623248 0.000000
vt -0.300000 0.588227 0.000000
vt -0.300000 0.553206 0.000000
vt -0.300000 0.518185 0.000000
vt -0.300000 0.483164 0.000000
vt -0.300000 0.448142 0.000000
vt -0.300000 0.413121 0.000000
vt -0.300000 0.378100 0.000000
vt -0.300000 0.343079 0.000000
vt -0.300000 0.308057 0.000000
vt -0.300000 0.273036 0.000000
vt -0.300000 0.238015 0.000000
vt -0.300000 0.202994 0.000000
vt -0.300000 0.167972 0.000000
vt -0.300000 0.132951 0.000000
vt -0.300000 0.097930 0.000000
vt -0.300000 0.062909 0.000000
vt 0.000000 0.029223 0.000000
vt 0.000000 0.009741 0.000000
vt 0.000000 -0.009741 0.000000
vt 0.000000 -0.029223 0.000000
vt 0.300000 -0.029223 0.000000
vt 0.300000 -0.009741 0.000000
vt 0.300000 0.009741 0.000000
vt 0.300000 0.029223 0.000000
vt 0.686574 0.000000 0.000000
vt 0.686574 0.300000 0.000000
vt 0.033426 0.300000 0.000000
vt 0.033426 0.000000 0.000000
vt 0.000000 0.029223 0.000000
vt 0.000000 0.009741 0.000000
vt 0.000000 -0.009741 0.000000
vt 0.000000 -0.029223 0.000000
vt 0.300000 -0.029223 0.000000
vt 0.300000 -0.009741 0.000000
vt 0.300000 0.009741 0.000000
vt 0.300000 0.029223 0.000000
vt -0.000000 -0.349997 0.000000
vt -0.300000 -0.349997 0.000000
vt -0.300000 -0.385018 0.000000
vt -0.300000 -0.420039 0.000000
vt -0.300000 -0.455060 0.000000
vt -0.300000 -0.490081 0.000000
vt -0.300000 -0.525103 0.000000
vt -0.300000 -0.560124 0.000000
vt -0.300000 -0.595145 0.000000
vt -0.300000 -0.630166 0.000000
vt -0.300000 -0.665188 0.000000
vt -0.300000 -0.700209 0.000000
vt -0.300000 -0.735230 0.000000
vt -0.300000 -0.770251 0.000000
vt -0.300000 -0.805273 0.000000
vt -0.300000 -0.840294 0.000000
vt -0.300000 -0.875315 0.000000
vt -0.300000 -0.910336 0.000000
vt -0.300000 -0.945358 0.000000
vt -0.300000 -0.980379 0.000000
vt -0.300000 -1.015400 0.000000
vt -0.300000 -1.050421 0.000000
vt -0.300000 -1.085442 0.000000
vt -0.300000 -1.120464 0.000000
vt -0.300000 -1.155485 0.000000
vt -0.300000 -1.190506 0.000000
vt -0.300000 -1.225527 0.000000
vt -0.300000 -1.260549 0.000000
vt -0.000000 -1.260549 0.000000
vt -0.000000 -1.225527 0.000000
vt -0.000000 -1.190506 0.000000
vt -0.000000 -1.155485 0.000000
vt -0.000000 -1.120464 0.000000
vt -0.000000 -1.085442 0.000000
vt -0.000000 -1.050421 0.000000
vt -0.000000 -1.015400 0.000000
vt -0.000000 -0.980379 0.000000
vt -0.000000 -0.945358 0.000000
vt -0.000000 -0.910336 0.000000
vt -0.000000 -0.875315 0.000000
vt -0.000000 -0.840294 0.000000
vt -0.000000 -0.805273 0.000000
vt -0.000000 -0.770251 0.000000
vt -0.000000 -0.735230 0.000000
vt -0.000000 -0.700209 0.000000
vt -0.000000 -0.665188 0.000000
vt -0.000000 -0.630166 0.000000
vt -0.000000 -0.595145 0.000000
vt -0.000000 -0.560124 0.000000
vt -0.000000 -0.525103 0.000000
vt -0.000000 -0.490081 0.000000
vt -0.000000 -0.455060 0.000000
vt -0.000000 -0.420039 0.000000
vt -0.000000 -0.385018 0.000000
vt 0.000000 0.029223 0.000000
vt 0.000000 0.009741 0.000000
vt 0.000000 -0.009741 0.000000
vt 0.000000 -0.029223 0.000000
vt 0.300000 -0.029223 0.000000
vt 0.300000 -0.009741 0.000000
vt 0.300000 0.009741 0.000000
vt 0.300000 0.029223 0.000000
vt 0.686574 0.000000 0.000000
vt 0.686574 0.300000 0.000000
vt 0.033426 0.300000 0.000000
vt 0.033426 0.000000 0.000000
vt 0.326574 0.145000 0.000000
vt -0.326574 0.145000 0.000000
vt -0.345904 0.147100 0.000000
vt -0.364332 0.153304 0.000000
vt -0.380998 0.163320 0.000000
vt -0.410559 0.182019 0.000000
vt -0.442868 0.195422 0.000000
vt -0.476985 0.203138 0.000000
vt -0.511917 0.204944 0.000000
vt -0.546647 0.200787 0.000000
vt -0.580166 0.190788 0.000000
vt -0.611498 0.175237 0.000000
vt -0.639731 0.154588 0.000000
vt -0.664044 0.129441 0.000000
vt -0.683730 0.100527 0.000000
vt -0.698215 0.068688 0.000000
vt -0.707078 0.034851 0.000000
vt -0.710061 0.000000 0.000000
vt -0.707078 -0.034851 0.000000
vt -0.698215 -0.068688 0.000000
vt -0.683730 -0.100527 0.000000
vt -0.664044 -0.129441 0.000000
vt -0.639731 -0.154588 0.000000
vt -0.611498 -0.175237 0.000000
vt -0.580166 -0.190788 0.000000
vt -0.546647 -0.200787 0.000000
vt -0.511917 -0.204944 0.000000
vt -0.476985 -0.203138 0.000000
vt -0.442868 -0.195422 0.000000
vt -0.410559 -0.182019 0.000000
vt -0.380998 -0.163320 0.000000
vt -0.364332 -0.153304 0.000000
vt -0.345904 -0.147100 0.000000
vt -0.326574 -0.145000 0.000000
vt 0.326574 -0.145000 0.000000
vt 0.345904 -0.147100 0.000000
vt 0.364332 -0.153304 0.000000
vt 0.380998 -0.163320 0.000000
vt 0.410559 -0.182019 0.000000
vt 0.442868 -0.195422 0.000000
vt 0.476985 -0.203138 0.000000
vt 0.511917 -0.204944 0.000000
vt 0.546647 -0.200787 0.000000
vt 0.580166 -0.190788 0.000000
vt 0.611498 -0.175237 0.000000
vt 0.639731 -0.154588 0.000000
vt 0.664044 -0.129441 0.000000
vt 0.683730 -0.100527 0.000000
vt 0.698215 -0.068688 0.000000
vt 0.707078 -0.034851 0.000000
vt 0.710061 0.000000 0.000000
vt 0.707078 0.034851 0.000000
vt 0.698215 0.068688 0.000000
vt 0.683730 0.100527 0.000000
vt 0.664044 0.129441 0.000000
vt 0.639731 0.154588 0.000000
vt 0.611498 0.175237 0.000000
vt 0.580166 0.190788 0.000000
vt 0.546647 0.200787 0.000000
vt 0.511917 0.204944 0.000000
vt 0.476985 0.203138 0.000000
vt 0.442868 0.195422 0.000000
vt 0.410559 0.182019 0.000000
vt 0.380998 0.163320 0.000000
vt 0.364332 0.153304 0.000000
vt 0.345904 0.147100 0.000000
vt -0.326574 0.145000 0.000000
vt -0.345904 0.147100 0.000000
vt -0.364332 0.153304 0.000000
vt -0.380998 0.163320 0.000000
vt -0.410559 0.182019 0.000000
vt -0.442868 0.195422 0.000000
vt -0.476985 0.203138 0.000000
vt -0.511917 0.204944 0.000000
vt -0.546647 0.200787 0.000000
vt -0.580166 0.190788 0.000000
vt -0.611498 0.175237 0.000000
vt -0.639731 0.154588 0.000000
vt -0.664044 0.129441 0.000000
vt -0.683730 0.100527 0.000000
vt -0.698215 0.068688 0.000000
vt -0.707078 0.034851 0.000000
vt -0.710061 0.000000 0.000000
vt -0.707078 -0.034851 0.000000
vt -0.698215 -0.068688 0.000000
vt -0.683730 -0.100527 0.000000
vt -0.664044 -0.129441 0.000000
vt -0.639731 -0.154588 0.000000
vt -0.611498 -0.175237 0.000000
vt -0.580166 -0.190788 0.000000
vt -0.546647 -0.200787 0.000000
vt -0.511917 -0.204944 0.000000
vt -0.476985 -0.203138 0.000000
vt -0.442868 -0.195422 0.000000
vt -0.410559 -0.182019 0.000000
vt -0.380998 -0.163320 0.000000
vt -0.364332 -0.153304 0.000000
vt -0.345904 -0.147100 0.000000
vt -0.326574 -0.145000 0.000000
vt 0.326574 -0.145000 0.000000
vt 0.345904 -0.147100 0.000000
vt 0.364332 -0.153304 0.000000
vt 0.380998 -0.163320 0.000000
vt 0.410559 -0.182019 0.000000
vt 0.442868 -0.195422 0.000000
vt 0.476985 -0.203138 0.000000
vt 0.511917 -0.204944 0.000000
vt 0.546647 -0.200787 0.000000
vt 0.580166 -0.190788 0.000000
vt 0.611498 -0.175237 0.000000
vt 0.639731 -0.154588 0.000000
vt 0.664044 -0.129441 0.000000
vt 0.683730 -0.100527 0.000000
vt 0.698215 -0.068688 0.000000
vt 0.707078 -0.034851 0.000000
vt 0.710061 0.000000 0.000000
vt 0.707078 0.034851 0.000000
vt 0.698215 0.068688 0.000000
vt 0.683730 0.100527 0.000000
vt 0.664044 0.129441 0.000000
vt 0.639731 0.154588 0.000000
vt 0.611498 0.175237 0.000000
vt 0.580166 0.190788 0.000000
vt 0.546647 0.200787 0.000000
vt 0.511917 0.204944 0.000000
vt 0.476985 0.203138 0.000000
vt 0.442868 0.195422 0.000000
vt 0.410559 0.182019 0.000000
vt 0.380998 0.163320 0.000000
vt 0.364332 0.153304 0.000000
vt 0.345904 0.147100 0.000000
vt 0.326574 0.145000 0.000000
vn 0.000000 0.100000 0.000000
vn 0.021478 0.097666 0.000000
vn 0.041954 0.090774 0.000000
vn 0.060471 0.079645 0.000000
vn 0.060471 0.079645 0.000000
vn 0.041954 0.090774 0.000000
vn 0.021478 0.097666 0.000000
vn 0.000000 0.100000 0.000000
vn 0.060471 0.079645 0.000000
vn 0.060471 0.079645 0.000000
vn 0.046055 0.088763 0.000000
vn 0.030299 0.095299 0.000000
vn 0.013662 0.099062 0.000000
vn -0.003373 0.099943 0.000000
vn -0.020310 0.097916 0.000000
vn -0.036656 0.093040 0.000000
vn -0.051935 0.085456 0.000000
vn -0.065703 0.075386 0.000000
vn -0.077560 0.063123 0.000000
vn -0.087159 0.049023 0.000000
vn -0.094223 0.033497 0.000000
vn -0.098545 0.016996 0.000000
vn -0.100000 0.000000 0.000000
vn -0.098545 -0.016996 0.000000
vn -0.094223 -0.033497 0.000000
vn -0.087159 -0.049023 0.000000
vn -0.077560 -0.063123 0.000000
vn -0.065703 -0.075386 0.000000
vn -0.051935 -0.085456 0.000000
vn -0.036656 -0.093040 0.000000
vn -0.020310 -0.097916 0.000000
vn -0.003373 -0.099943 0.000000
vn 0.013662 -0.099062 0.000000
vn 0.030299 -0.095299 0.000000
vn 0.046055 -0.088763 0.000000
vn 0.060471 -0.079645 0.000000
vn 0.060471 -0.079645 0.000000
vn 0.046055 -0.088763 0.000000
vn 0.030299 -0.095299 0.000000
vn 0.013662 -0.099062 0.000000
vn -0.003373 -0.099943 0.000000
vn -0.020310 -0.097916 0.000000
vn -0.036656 -0.093040 0.000000
vn -0.051935 -0.085456 0.000000
vn -0.065703 -0.075386 0.000000
vn -0.077560 -0.063123 0.000000
vn -0.087159 -0.049023 0.000000
vn -0.094223 -0.033497 0.000000
vn -0.098545 -0.016996 0.000000
vn -0.100000 0.000000 0.000000
vn -0.098545 0.016996 0.000000
vn -0.094223 0.033497 0.000000
vn -0.087159 0.049023 0.000000
vn -0.077560 0.063123 0.000000
vn -0.065703 0.075386 0.000000
vn -0.051935 0.085456 0.000000
vn -0.036656 0.093040 0.000000
vn -0.020310 0.097916 0.000000
vn -0.003373 0.099943 0.000000
vn 0.013662 0.099062 0.000000
vn 0.030299 0.095299 0.000000
vn 0.046055 0.088763 0.000000
vn -0.060471 0.079645 0.000000
vn -0.041954 0.090774 0.000000
vn -0.021478 0.097666 0.000000
vn 0.000000 0.100000 0.000000
vn 0.000000 0.100000 0.000000
vn -0.021478 0.097666 0.000000
vn -0.041954 0.090774 0.000000
vn -0.060471 0.079645 0.000000
vn 0.000000 0.100000 0.000000
vn 0.000000 0.100000 0.000000
vn 0.000000 0.100000 0.000000
vn 0.000000 0.100000 0.000000
vn 0.000000 -0.100000 0.000000
vn -0.021478 -0.097666 0.000000
vn -0.041954 -0.090774 0.000000
vn -0.060471 -0.079645 0.000000
vn -0.060471 -0.079645 0.000000
vn -0.041954 -0.090774 0.000000
vn -0.021478 -0.097666 0.000000
vn 0.000000 -0.100000 0.000000
vn -0.060471 0.079645 0.000000
vn -0.060471 0.079645 0.000000
vn -0.046055 0.088763 0.000000
vn -0.030299 0.095299 0.000000
vn -0.013662 0.099062 0.000000
vn 0.003373 0.099943 0.000000
vn 0.020310 0.097916 0.000000
vn 0.036656 0.093040 0.000000
vn 0.051935 0.085456 0.000000
vn 0.065703 0.075386 0.000000
vn 0.077560 0.063123 0.000000
vn 0.087159 0.049023 0.000000
vn 0.094223 0.033497 0.000000
vn 0.098545 0.016996 0.000000
vn 0.100000 0.000000 0.000000
vn 0.098545 -0.016996 0.000000
vn 0.094223 -0.033497 0.000000
vn 0.087159 -0.049023 0.000000
vn 0.077560 -0.063123 0.000000
vn 0.065703 -0.075386 0.000000
vn 0.051935 -0.085456 0.000000
vn 0.036656 -0.093040 0.000000
vn 0.020310 -0.097916 0.000000
vn 0.003373 -0.099943 0.000000
vn -0.013662 -0.099062 0.000000
vn -0.030299 -0.095299 0.000000
vn -0.046055 -0.088763 0.000000
vn -0.060471 -0.079645 0.000000
vn -0.060471 -0.079645 0.000000
vn -0.046055 -0.088763 0.000000
vn -0.030299 -0.095299 0.000000
vn -0.013662 -0.099062 0.000000
vn 0.003373 -0.099943 0.000000
vn 0.020310 -0.097916 0.000000
vn 0.036656 -0.093040 0.000000
vn 0.051935 -0.085456 0.000000
vn 0.065703 -0.075386 0.000000
vn 0.077560 -0.063123 0.000000
vn 0.087159 -0.049023 0.000000
vn 0.094223 -0.033497 0.000000
vn 0.098545 -0.016996 0.000000
vn 0.100000 0.000000 0.000000
vn 0.098545 0.016996 0.000000
vn 0.094223 0.033497 0.000000
vn 0.087159 0.049023 0.000000
vn 0.077560 0.063123 0.000000
vn 0.065703 0.075386 0.000000
vn 0.051935 0.085456 0.000000
vn 0.036656 0.093040 0.000000
vn 0.020310 0.097916 0.000000
vn 0.003373 0.099943 0.000000
vn -0.013662 0.099062 0.000000
vn -0.030299 0.095299 0.000000
vn -0.046055 0.088763 0.000000
vn 0.060471 -0.079645 0.000000
vn 0.041954 -0.090774 0.000000
vn 0.021478 -0.097666 0.000000
vn 0.000000 -0.100000 0.000000
vn 0.000000 -0.100000 0.000000
vn 0.021478 -0.097666 0.000000
vn 0.041954 -0.090774 0.000000
vn 0.060471 -0.079645 0.000000
vn 0.000000 -0.100000 0.000000
vn 0.000000 -0.100000 0.000000
vn 0.000000 -0.100000 0.000000
vn 0.000000 -0.100000 0.000000
vn 0.000000 0.000000 0.100000
vn 0.000000 0.000000 0.100000
vn 0.000000 0.000000 0.100000
vn 0.000000 0.000000 0.100000
vn 0.000000 0.000000 0.100000
vn 0.000000 0.000000 0.100000
vn 0.000000 0.000000 0.100000
vn 0.000000 0.000000 0.100000
vn 0.000000 0.000000 0.100000
vn 0.000000 0.000000 0.100000
vn 0.000000 0.000000 0.100000
vn 0.000000 0.000000 0.100000
vn 0.000000 0.000000 0.100000
vn 0.000000 0.000000 0.100000
vn 0.000000 0.000000 0.100000
vn 0.000000 0.000000 0.100000
vn 0.000000 0.000000 0.100000
vn 0.000000 0.000000 0.100000
vn 0.000000 0.000000 0.100000
vn 0.000000 0.000000 0.100000
vn 0.000000 0.000000 0.100000
vn 0.000000 0.000000 0.100000
vn 0.000000 0.000000 0.100000
vn 0.000000 0.000000 0.100000
vn 0.000000 0.000000 0.100000
vn 0.000000 0.000000 0.100000
vn 0.000000 0.000000 0.100000
vn 0.000000 0.000000 0.100000
vn 0.000000 0.000000 0.100000
vn 0.000000 0.000000 0.100000
vn 0.000000 0.000000 0.100000
vn 0.000000 0.000000 0.100000
vn 0.000000 0.000000 0.100000
vn 0.000000 0.000000 0.100000
vn 0.000000 0.000000 0.100000
vn 0.000000 0.000000 0.100000
vn 0.000000 0.000000 0.100000
vn 0.000000 0.000000 0.100000
vn 0.000000 0.000000 0.100000
vn 0.000000 0.000000 0.100000
vn 0.000000 0.000000 0.100000
vn 0.000000 0.000000 0.100000
vn 0.000000 0.000000 0.100000
vn 0.000000 0.000000 0.100000
vn 0.000000 0.000000 0.100000
vn 0.000000 0.000000 0.100000
vn 0.000000 0.000000 0.100000
vn 0.000000 0.000000 0.100000
vn 0.000000 0.000000 0.100000
vn 0.000000 0.000000 0.100000
vn 0.000000 0.000000 0.100000
vn 0.000000 0.000000 0.100000
vn 0.000000 0.000000 0.100000
vn 0.000000 0.000000 0.100000
vn 0.000000 0.000000 0.100000
vn 0.000000 0.000000 0.100000
vn 0.000000 0.000000 0.100000
vn 0.000000 0.000000 0.100000
vn 0.000000 0.000000 0.100000
vn 0.000000 0.000000 0.100000
vn 0.000000 0.000000 0.100000
vn 0.000000 0.000000 0.100000
vn 0.000000 0.000000 0.100000
vn 0.000000 0.000000 0.100000
vn 0.000000 0.000000 0.100000
vn 0.000000 0.000000 0.100000
vn 0.000000 0.000000 -0.100000
vn 0.000000 0.000000 -0.100000
vn 0.000000 0.000000 -0.100000
vn 0.000000 0.000000 -0.100000
vn 0.000000 0.000000 -0.100000
vn 0.000000 0.000000 -0.100000
vn 0.000000 0.000000 -0.100000
vn 0.000000 0.000000 -0.100000
vn 0.000000 0.000000 -0.100000
vn 0.000000 0.000000 -0.100000
vn 0.000000 0.000000 -0.100000
vn 0.000000 0.000000 -0.100000
vn 0.000000 0.000000 -0.100000
vn 0.000000 0.000000 -0.100000
vn 0.000000 0.000000 -0.100000
vn 0.000000 0.000000 -0.100000
vn 0.000000 0.000000 -0.100000
vn 0.000000 0.000000 -0.100000
vn 0.000000 0.000000 -0.100000
vn 0.000000 0.000000 -0.100000
vn 0.000000 0.000000 -0.100000
vn 0.000000 0.000000 -0.100000
vn 0.000000 0.000000 -0.100000
vn 0.000000 0.000000 -0.100000
vn 0.000000 0.000000 -0.100000
vn 0.000000 0.000000 -0.100000
vn 0.000000 0.000000 -0.100000
vn 0.000000 0.000000 -0.100000
vn 0.000000 0.000000 -0.100000
vn 0.000000 0.000000 -0.100000
vn 0.000000 0.000000 -0.100000
vn 0.000000 0.000000 -0.100000
vn 0.000000 0.000000 -0.100000
vn 0.000000 0.000000 -0.100000
vn 0.000000 0.000000 -0.100000
vn 0.000000 0.000000 -0.100000
vn 0.000000 0.000000 -0.100000
vn 0.000000 0.000000 -0.100000
vn 0.000000 0.000000 -0.100000
vn 0.000000 0.000000 -0.100000
vn 0.000000 0.000000 -0.100000
vn 0.000000 0.000000 -0.100000
vn 0.000000 0.000000 -0.100000
vn 0.000000 0.000000 -0.100000
vn 0.000000 0.000000 -0.100000
vn 0.000000 0.000000 -0.100000
vn 0.000000 0.000000 -0.100000
vn 0.000000 0.000000 -0.100000
vn 0.000000 0.000000 -0.100000
vn 0.000000 0.000000 -0.100000
vn 0.000000 0.000000 -0.100000
vn 0.000000 0.000000 -0.100000
vn 0.000000 0.000000 -0.100000
vn 0.000000 0.000000 -0.100000
vn 0.000000 0.000000 -0.100000
vn 0.000000 0.000000 -0.100000
vn 0.000000 0.000000 -0.100000
vn 0.000000 0.000000 -0.100000
vn 0.000000 0.000000 -0.100000
vn 0.000000 0.000000 -0.100000
vn 0.000000 0.000000 -0.100000
vn 0.000000 0.000000 -0.100000
vn 0.000000 0.000000 -0.100000
vn 0.000000 0.000000 -0.100000
vn 0.000000 0.000000 -0.100000
vn 0.000000 0.000000 -0.100000
usemtl 191,191,191
f 66/8/8 65/1/1 62/7/7
f 62/7/7 65/1/1 61/2/2
f 62/7/7 61/2/2 58/6/6
f 58/6/6 61/2/2 57/3/3
f 58/6/6 57/3/3 54/5/5
f 54/5/5 57/3/3 53/4/4
f 54/9/9 53/10/10 50/62/62
f 50/62/62 53/10/10 49/11/11
f 50/62/62 49/11/11 46/61/61
f 46/61/61 49/11/11 45/12/12
f 46/61/61 45/12/12 42/60/60
f 42/60/60 45/12/12 41/13/13
f 42/60/60 41/13/13 38/59/59
f 38/59/59 41/13/13 37/14/14
f 38/59/59 37/14/14 34/58/58
f 34/58/58 37/14/14 33/15/15
f 34/58/58 33/15/15 30/57/57
f 30/57/57 33/15/15 29/16/16
f 30/57/57 29/16/16 26/56/56
f 26/56/56 29/16/16 25/17/17
f 26/56/56 25/17/17 22/55/55
f 22/55/55 25/17/17 21/18/18
f 22/55/55 21/18/18 18/54/54
f 18/54/54 21/18/18 17/19/19
f 18/54/54 17/19/19 14/53/53
f 14/53/53 17/19/19 13/20/20
f 14/53/53 13/20/20 10/52/52
f 10/52/52 13/20/20 9/21/21
f 10/52/52 9/21/21 6/51/51
f 6/51/51 9/21/21 5/22/22
f 6/51/51 5/22/22 2/50/50
f 2/50/50 5/22/22 1/23/23
f 2/50/50 1/23/23 4/49/49
f 4/49/49 1/23/23 3/24/24
f 4/49/49 3/24/24 8/48/48
f 8/48/48 3/24/24 7/25/25
f 8/48/48 7/25/25 12/47/47
f 12/47/47 7/25/25 11/26/26
f 12/47/47 11/26/26 16/46/46
f 16/46/46 11/26/26 15/27/27
f 16/46/46 15/27/27 20/45/45
f 20/45/45 15/27/27 19/28/28
f 20/45/45 19/28/28 24/44/44
f 24/44/44 19/28/28 23/29/29
f 24/44/44 23/29/29 28/43/43
f 28/43/43 23/29/29 27/30/30
f 28/43/43 27/30/30 32/42/42
f 32/42/42 27/30/30 31/31/31
f 32/42/42 31/31/31 36/41/41
f 36/41/41 31/31/31 35/32/32
f 36/41/41 35/32/32 40/40/40
f 40/40/40 35/32/32 39/33/33
f 40/40/40 39/33/33 44/39/39
f 44/39/39 39/33/33 43/34/34
f 44/39/39 43/34/34 48/38/38
f 48/38/38 43/34/34 47/35/35
f 48/38/38 47/35/35 52/37/37
f 52/37/37 47/35/35 51/36/36
f 82/70/70 81/63/63 78/69/69
f 78/69/69 81/63/63 77/64/64
f 78/69/69 77/64/64 74/68/68
f 74/68/68 77/64/64 73/65/65
f 74/68/68 73/65/65 70/67/67
f 70/67/67 73/65/65 69/66/66
f 66/72/72 70/73/73 65/71/71
f 65/71/71 70/73/73 69/74/74
f 68/82/82 67/75/75 72/81/81
f 72/81/81 67/75/75 71/76/76
f 72/81/81 71/76/76 76/80/80
f 76/80/80 71/76/76 75/77/77
f 76/80/80 75/77/77 80/79/79
f 80/79/79 75/77/77 79/78/78
f 81/83/83 82/84/84 85/136/136
f 85/136/136 82/84/84 86/85/85
f 85/136/136 86/85/85 89/135/135
f 89/135/135 86/85/85 90/86/86
f 89/135/135 90/86/86 93/134/134
f 93/134/134 90/86/86 94/87/87
f 93/134/134 94/87/87 97/133/133
f 97/133/133 94/87/87 98/88/88
f 97/133/133 98/88/88 101/132/132
f 101/132/132 98/88/88 102/89/89
f 101/132/132 102/89/89 105/131/131
f 105/131/131 102/89/89 106/90/90
f 105/131/131 106/90/90 109/130/130
f 109/130/130 106/90/90 110/91/91
f 109/130/130 110/91/91 113/129/129
f 113/129/129 110/91/91 114/92/92
f 113/129/129 114/92/92 117/128/128
f 117/128/128 114/92/92 118/93/93
f 117/128/128 118/93/93 121/127/127
f 121/127/127 118/93/93 122/94/94
f 121/127/127 122/94/94 125/126/126
f 125/126/126 122/94/94 126/95/95
f 125/126/126 126/95/95 129/125/125
f 129/125/125 126/95/95 130/96/96
f 129/125/125 130/96/96 131/124/124
f 131/124/124 130/96/96 132/97/97
f 131/124/124 132/97/97 127/123/123
f 127/123/123 132/97/97 128/98/98
f 127/123/123 128/98/98 123/122/122
f 123/122/122 128/98/98 124/99/99
f 123/122/122 124/99/99 119/121/121
f 119/121/121 124/99/99 120/100/100
f 119/121/121 120/100/100 115/120/120
f 115/120/120 120/100/100 116/101/101
f 115/120/120 116/101/101 111/119/119
f 111/119/119 116/101/101 112/102/102
f 111/119/119 112/102/102 107/118/118
f 107/118/118 112/102/102 108/103/103
f 107/118/118 108/103/103 103/117/117
f 103/117/117 108/103/103 104/104/104
f 103/117/117 104/104/104 99/116/116
f 99/116/116 104/104/104 100/105/105
f 99/116/116 100/105/105 95/115/115
f 95/115/115 100/105/105 96/106/106
f 95/115/115 96/106/106 91/114/114
f 91/114/114 96/106/106 92/107/107
f 91/114/114 92/107/107 87/113/113
f 87/113/113 92/107/107 88/108/108
f 87/113/113 88/108/108 83/112/112
f 83/112/112 88/108/108 84/109/109
f 83/112/112 84/109/109 79/111/111
f 79/111/111 84/109/109 80/110/110
f 52/144/144 51/137/137 56/143/143
f 56/143/143 51/137/137 55/138/138
f 56/143/143 55/138/138 60/142/142
f 60/142/142 55/138/138 59/139/139
f 60/142/142 59/139/139 64/141/141
f 64/141/141 59/139/139 63/140/140
f 68/146/146 64/147/147 67/145/145
f 67/145/145 64/147/147 63/148/148
f 66/150/150 68/183/183 70/149/149
f 70/149/149 68/183/183 132/199/199
f 70/149/149 132/199/199 130/200/200
f 62/151/151 10/164/164 66/150/150
f 66/150/150 10/164/164 6/165/165
f 66/150/150 6/165/165 2/166/166
f 58/152/152 18/162/162 62/151/151
f 62/151/151 18/162/162 14/163/163
f 62/151/151 14/163/163 10/164/164
f 18/162/162 58/152/152 22/161/161
f 22/161/161 58/152/152 54/153/153
f 22/161/161 54/153/153 26/160/160
f 26/160/160 54/153/153 50/154/154
f 26/160/160 50/154/154 30/159/159
f 30/159/159 50/154/154 46/155/155
f 30/159/159 46/155/155 34/158/158
f 34/158/158 46/155/155 42/156/156
f 34/158/158 42/156/156 38/157/157
f 66/150/150 2/166/166 64/182/182
f 64/182/182 2/166/166 4/167/167
f 64/182/182 4/167/167 8/168/168
f 64/182/182 8/168/168 60/181/181
f 60/181/181 8/168/168 12/169/169
f 60/181/181 12/169/169 16/170/170
f 60/181/181 16/170/170 56/180/180
f 56/180/180 16/170/170 20/171/171
f 56/180/180 20/171/171 52/179/179
f 52/179/179 20/171/171 24/172/172
f 52/179/179 24/172/172 48/178/178
f 48/178/178 24/172/172 28/173/173
f 48/178/178 28/173/173 44/177/177
f 44/177/177 28/173/173 32/174/174
f 44/177/177 32/174/174 40/176/176
f 40/176/176 32/174/174 36/175/175
f 64/182/182 68/183/183 66/150/150
f 72/184/184 124/197/197 68/183/183
f 68/183/183 124/197/197 128/198/198
f 68/183/183 128/198/198 132/199/199
f 76/185/185 116/195/195 72/184/184
f 72/184/184 116/195/195 120/196/196
f 72/184/184 120/196/196 124/197/197
f 116/195/195 76/185/185 112/194/194
f 112/194/194 76/185/185 80/186/186
f 112/194/194 80/186/186 108/193/193
f 108/193/193 80/186/186 84/187/187
f 108/193/193 84/187/187 104/192/192
f 104/192/192 84/187/187 88/188/188
f 104/192/192 88/188/188 100/191/191
f 100/191/191 88/188/188 92/189/189
f 100/191/191 92/189/189 96/190/190
f 130/200/200 126/201/201 70/149/149
f 70/149/149 126/201/201 74/214/214
f 74/214/214 126/201/201 122/202/202
f 74/214/214 122/202/202 118/203/203
f 74/214/214 118/203/203 78/213/213
f 78/213/213 118/203/203 114/204/204
f 78/213/213 114/204/204 82/212/212
f 82/212/212 114/204/204 110/205/205
f 82/212/212 110/205/205 86/211/211
f 86/211/211 110/205/205 106/206/206
f 86/211/211 106/206/206 90/210/210
f 90/210/210 106/206/206 102/207/207
f 90/210/210 102/207/207 94/209/209
f 94/209/209 102/207/207 98/208/208
f 73/216/216 125/229/229 69/215/215
f 69/215/215 125/229/229 129/230/230
f 69/215/215 129/230/230 131/231/231
f 77/217/217 117/227/227 73/216/216
f 73/216/216 117/227/227 121/228/228
f 73/216/216 121/228/228 125/229/229
f 117/227/227 77/217/217 113/226/226
f 113/226/226 77/217/217 81/218/218
f 113/226/226 81/218/218 109/225/225
f 109/225/225 81/218/218 85/219/219
f 109/225/225 85/219/219 105/224/224
f 105/224/224 85/219/219 89/220/220
f 105/224/224 89/220/220 101/223/223
f 101/223/223 89/220/220 93/221/221
f 101/223/223 93/221/221 97/222/222
f 69/215/215 131/231/231 67/247/247
f 67/247/247 131/231/231 127/232/232
f 67/247/247 127/232/232 123/233/233
f 67/247/247 123/233/233 71/246/246
f 71/246/246 123/233/233 119/234/234
f 71/246/246 119/234/234 115/235/235
f 71/246/246 115/235/235 75/245/245
f 75/245/245 115/235/235 111/236/236
f 75/245/245 111/236/236 79/244/244
f 79/244/244 111/236/236 107/237/237
f 79/244/244 107/237/237 83/243/243
f 83/243/243 107/237/237 103/238/238
f 83/243/243 103/238/238 87/242/242
f 87/242/242 103/238/238 99/239/239
f 87/242/242 99/239/239 91/241/241
f 91/241/241 99/239/239 95/240/240
f 67/247/247 63/248/248 69/215/215
f 69/215/215 63/248/248 65/280/280
f 65/280/280 63/248/248 1/264/264
f 65/280/280 1/264/264 5/265/265
f 59/249/249 7/262/262 63/248/248
f 63/248/248 7/262/262 3/263/263
f 63/248/248 3/263/263 1/264/264
f 55/250/250 15/260/260 59/249/249
f 59/249/249 15/260/260 11/261/261
f 59/249/249 11/261/261 7/262/262
f 15/260/260 55/250/250 19/259/259
f 19/259/259 55/250/250 51/251/251
f 19/259/259 51/251/251 23/258/258
f 23/258/258 51/251/251 47/252/252
f 23/258/258 47/252/252 27/257/257
f 27/257/257 47/252/252 43/253/253
f 27/257/257 43/253/253 31/256/256
f 31/256/256 43/253/253 39/254/254
f 31/256/256 39/254/254 35/255/255
f 5/265/265 9/266/266 65/280/280
f 65/280/280 9/266/266 61/279/279
f 61/279/279 9/266/266 13/267/267
f 61/279/279 13/267/267 17/268/268
f 61/279/279 17/268/268 57/278/278
f 57/278/278 17/268/268 21/269/269
f 57/278/278 21/269/269 53/277/277
f 53/277/277 21/269/269 25/270/270
f 53/277/277 25/270/270 49/276/276
f 49/276/276 25/270/270 29/271/271
f 49/276/276 29/271/271 45/275/275
f 45/275/275 29/271/271 33/272/272
f 45/275/275 33/272/272 41/274/274
f 41/274/274 33/272/272 37/273/273
# 132 vertices
# 280 texture params
# 280 normals
# 260 facets

# 1 groups
