# WaveFront *.obj file (generated by Autodesk ATF)

mtllib T2601_SupportEtiq.mtl

g Solide2

v -15.028301 -12.301649 0.000000
v -15.028301 -12.301649 3.000000
v -15.028301 -11.698351 0.000000
v -15.028301 -11.698351 3.000000
v -15.028301 -0.301649 0.000000
v -15.028301 -0.301649 3.000000
v -15.028301 0.301649 0.000000
v -15.028301 0.301649 3.000000
v -14.852740 -12.878838 0.000000
v -14.852740 -12.878838 3.000000
v -14.852740 -11.121162 0.000000
v -14.852740 -11.121162 3.000000
v -14.852740 -0.878838 0.000000
v -14.852740 -0.878838 3.000000
v -14.852740 0.878838 0.000000
v -14.852740 0.878838 3.000000
v -14.516811 -13.379958 0.000000
v -14.516811 -13.379958 3.000000
v -14.516811 -10.620043 0.000000
v -14.516811 -10.620043 3.000000
v -14.516811 -1.379957 0.000000
v -14.516811 -1.379957 3.000000
v -14.516811 1.379957 0.000000
v -14.516811 1.379957 3.000000
v -14.049594 -13.761634 0.000000
v -14.049594 -13.761634 3.000000
v -14.049594 -10.238367 0.000000
v -14.049594 -10.238367 3.000000
v -14.049594 -1.761633 0.000000
v -14.049594 -1.761633 3.000000
v -14.049594 1.761633 0.000000
v -14.049594 1.761633 3.000000
v -13.491528 -13.990829 0.000000
v -13.491528 -13.990829 3.000000
v -13.491528 -10.009171 0.000000
v -13.491528 -10.009171 3.000000
v -13.491528 -1.990829 0.000000
v -13.491528 -1.990829 3.000000
v -13.491528 1.990829 0.000000
v -13.491528 1.990829 3.000000
v -12.890917 -14.047706 0.000000
v -12.890917 -14.047706 3.000000
v -12.890917 -9.952294 0.000000
v -12.890917 -9.952294 3.000000
v -12.890917 -2.047706 0.000000
v -12.890917 -2.047706 3.000000
v -12.890917 2.047706 0.000000
v -12.890917 2.047706 3.000000
v -12.299747 -13.927342 0.000000
v -12.299747 -13.927342 3.000000
v -12.299747 -10.072658 0.000000
v -12.299747 -10.072658 3.000000
v -12.299747 -1.927342 0.000000
v -12.299747 -1.927342 3.000000
v -12.299747 1.927342 0.000000
v -12.299747 1.927342 3.000000
v -11.769190 -13.640155 0.000000
v -11.769190 -13.640155 3.000000
v -11.769190 -10.359845 0.000000
v -11.769190 -10.359845 3.000000
v -11.769190 -1.640154 0.000000
v -11.769190 -1.640154 3.000000
v -11.769190 1.640154 0.000000
v -11.769190 1.640154 3.000000
v -11.594304 -13.536159 0.000000
v -11.594304 -13.536159 3.000000
v -11.594304 -10.463841 0.000000
v -11.594304 -10.463841 3.000000
v -11.594304 -1.536159 0.000000
v -11.594304 -1.536159 3.000000
v -11.594304 1.536159 0.000000
v -11.594304 1.536159 3.000000
v -11.401284 -13.471789 0.000000
v -11.401284 -13.471789 3.000000
v -11.401284 -10.528210 0.000000
v -11.401284 -10.528210 3.000000
v -11.401284 -1.471789 0.000000
v -11.401284 -1.471789 3.000000
v -11.401284 1.471789 0.000000
v -11.401284 1.471789 3.000000
v -11.198984 -13.450000 0.000000
v -11.198984 -13.450000 3.000000
v -11.198984 -10.549999 0.000000
v -11.198984 -10.549999 3.000000
v -11.198984 -1.450000 0.000000
v -11.198984 -1.450000 3.000000
v -11.198984 1.450000 0.000000
v -11.198984 1.450000 3.000000
v -5.000000 -13.450000 0.000000
v -5.000000 -13.450000 3.000000
v -5.000000 -1.450000 0.000000
v -5.000000 -1.450000 3.000000
v -5.000000 1.450000 0.000000
v -5.000000 1.450000 3.000000
v -4.918333 -10.549999 0.000000
v -4.918333 -10.549999 3.000000
v -4.054065 -10.474738 0.000000
v -4.054065 -10.474738 3.000000
v -4.024549 -13.546073 0.000000
v -4.024549 -13.546073 3.000000
v -4.024549 -1.546074 0.000000
v -4.024549 -1.546074 3.000000
v -4.024549 1.546074 0.000000
v -4.024549 1.546074 3.000000
v -3.215815 -10.251216 0.000000
v -3.215815 -10.251216 3.000000
v -3.086583 -13.830602 0.000000
v -3.086583 -13.830602 3.000000
v -3.086583 -1.830602 0.000000
v -3.086583 -1.830602 3.000000
v -3.086583 1.830602 0.000000
v -3.086583 1.830602 3.000000
v -2.428820 -9.886165 0.000000
v -2.428820 -9.886165 3.000000
v -2.222149 -14.292651 0.000000
v -2.222149 -14.292651 3.000000
v -2.222149 -2.292652 0.000000
v -2.222149 -2.292652 3.000000
v -2.222149 2.292652 0.000000
v -2.222149 2.292652 3.000000
v -1.716771 -9.390573 0.000000
v -1.716771 -9.390573 3.000000
v -1.464466 -14.914466 0.000000
v -1.464466 -14.914466 3.000000
v -1.464466 -2.914466 0.000000
v -1.464466 -2.914466 3.000000
v -1.464466 2.914466 0.000000
v -1.464466 2.914466 3.000000
v -1.101105 -8.779361 0.000000
v -1.101105 -8.779361 3.000000
v -0.842652 -15.672148 0.000000
v -0.842652 -15.672148 3.000000
v -0.842652 -3.672149 0.000000
v -0.842652 -3.672149 3.000000
v -0.842652 3.672149 0.000000
v -0.842652 3.672149 3.000000
v -0.600357 -8.070929 0.000000
v -0.600357 -8.070929 3.000000
v -0.380602 -16.536583 0.000000
v -0.380602 -16.536583 3.000000
v -0.380602 -4.536583 0.000000
v -0.380602 -4.536583 3.000000
v -0.380602 4.536583 0.000000
v -0.380602 4.536583 3.000000
v -0.229601 -7.286605 0.000000
v -0.229601 -7.286605 3.000000
v -0.096074 -17.474549 0.000000
v -0.096074 -17.474549 3.000000
v -0.096074 -5.474548 0.000000
v -0.096074 -5.474548 3.000000
v -0.096074 5.474548 0.000000
v -0.096074 5.474548 3.000000
v 0.000000 -25.000000 0.000000
v 0.000000 -25.000000 3.000000
v 0.000000 -18.450000 0.000000
v 0.000000 -18.450000 3.000000
v 0.000000 -6.450000 0.000000
v 0.000000 -6.450000 3.000000
v 0.000000 6.450000 0.000000
v 0.000000 6.450000 3.000000
v 0.000000 13.000000 0.000000
v 0.000000 13.000000 3.000000
v 0.076120 -25.382683 0.000000
v 0.076120 -25.382683 3.000000
v 0.076120 13.382684 0.000000
v 0.076120 13.382684 3.000000
v 0.292893 -25.707107 0.000000
v 0.292893 -25.707107 3.000000
v 0.292893 13.707107 0.000000
v 0.292893 13.707107 3.000000
v 0.617317 -25.923879 0.000000
v 0.617317 -25.923879 3.000000
v 0.617317 13.923880 0.000000
v 0.617317 13.923880 3.000000
v 1.000000 -25.999999 0.000000
v 1.000000 -25.999999 3.000000
v 1.000000 14.000000 0.000000
v 1.000000 14.000000 3.000000
v 11.000000 -25.999999 0.000000
v 11.000000 -25.999999 3.000000
v 11.000000 14.000000 0.000000
v 11.000000 14.000000 3.000000
v 11.382684 -25.923879 0.000000
v 11.382684 -25.923879 3.000000
v 11.382684 13.923880 0.000000
v 11.382684 13.923880 3.000000
v 11.707107 -25.707107 0.000000
v 11.707107 -25.707107 3.000000
v 11.707107 13.707107 0.000000
v 11.707107 13.707107 3.000000
v 11.923879 -25.382683 0.000000
v 11.923879 -25.382683 3.000000
v 11.923879 13.382684 0.000000
v 11.923879 13.382684 3.000000
v 12.000000 -25.000000 0.000000
v 12.000000 -25.000000 3.000000
v 12.000000 13.000000 0.000000
v 12.000000 13.000000 3.000000
vt -0.300000 0.078540 0.000000
vt -0.300000 0.039270 0.000000
vt -0.300000 0.000000 0.000000
vt -0.300000 -0.039270 0.000000
vt -0.300000 -0.078540 0.000000
vt -0.000000 -0.078540 0.000000
vt -0.000000 -0.039270 0.000000
vt -0.000000 0.000000 0.000000
vt -0.000000 0.039270 0.000000
vt -0.000000 0.078540 0.000000
vt 0.100000 0.300000 0.000000
vt 0.100000 0.000000 0.000000
vt 1.100000 0.000000 0.000000
vt 1.100000 0.300000 0.000000
vt 1.352530 1.900000 0.000000
vt 1.344918 1.938268 0.000000
vt 1.323241 1.970711 0.000000
vt 1.290799 1.992388 0.000000
vt 1.252530 2.000000 0.000000
vt 0.252530 2.000000 0.000000
vt 0.214262 1.992388 0.000000
vt 0.181820 1.970711 0.000000
vt 0.160143 1.938268 0.000000
vt 0.152530 1.900000 0.000000
vt 0.152530 1.245000 0.000000
vt 0.142923 1.147455 0.000000
vt 0.114470 1.053658 0.000000
vt 0.068265 0.967215 0.000000
vt 0.006084 0.891447 0.000000
vt -0.069684 0.829265 0.000000
vt -0.156128 0.783060 0.000000
vt -0.249924 0.754607 0.000000
vt -0.347470 0.745000 0.000000
vt -0.967368 0.745000 0.000000
vt -0.987598 0.747179 0.000000
vt -1.006900 0.753616 0.000000
vt -1.024389 0.764015 0.000000
vt -1.077444 0.792734 0.000000
vt -1.136561 0.804771 0.000000
vt -1.196622 0.799083 0.000000
vt -1.252429 0.776163 0.000000
vt -1.299151 0.737996 0.000000
vt -1.332744 0.687884 0.000000
vt -1.350300 0.630165 0.000000
vt -1.350300 0.569835 0.000000
vt -1.332744 0.512116 0.000000
vt -1.299151 0.462004 0.000000
vt -1.252429 0.423837 0.000000
vt -1.196622 0.400917 0.000000
vt -1.136561 0.395229 0.000000
vt -1.077444 0.407266 0.000000
vt -1.024389 0.435985 0.000000
vt -1.006900 0.446384 0.000000
vt -0.987598 0.452821 0.000000
vt -0.967368 0.455000 0.000000
vt -0.347470 0.455000 0.000000
vt -0.249924 0.445393 0.000000
vt -0.156128 0.416940 0.000000
vt -0.069684 0.370735 0.000000
vt 0.006084 0.308553 0.000000
vt 0.068265 0.232785 0.000000
vt 0.114470 0.146342 0.000000
vt 0.142923 0.052545 0.000000
vt 0.152530 -0.045000 0.000000
vt 0.129570 -0.128660 0.000000
vt 0.092495 -0.207093 0.000000
vt 0.042420 -0.277936 0.000000
vt -0.019147 -0.339057 0.000000
vt -0.090351 -0.388616 0.000000
vt -0.169051 -0.425122 0.000000
vt -0.252876 -0.447474 0.000000
vt -0.339303 -0.455000 0.000000
vt -0.967368 -0.455000 0.000000
vt -0.987598 -0.452821 0.000000
vt -1.006900 -0.446384 0.000000
vt -1.024389 -0.435985 0.000000
vt -1.077444 -0.407266 0.000000
vt -1.136561 -0.395229 0.000000
vt -1.196622 -0.400917 0.000000
vt -1.252429 -0.423837 0.000000
vt -1.299151 -0.462004 0.000000
vt -1.332744 -0.512116 0.000000
vt -1.350300 -0.569835 0.000000
vt -1.350300 -0.630165 0.000000
vt -1.332744 -0.687884 0.000000
vt -1.299151 -0.737996 0.000000
vt -1.252429 -0.776163 0.000000
vt -1.196622 -0.799083 0.000000
vt -1.136561 -0.804771 0.000000
vt -1.077444 -0.792734 0.000000
vt -1.024389 -0.764015 0.000000
vt -1.006900 -0.753616 0.000000
vt -0.987598 -0.747179 0.000000
vt -0.967368 -0.745000 0.000000
vt -0.347470 -0.745000 0.000000
vt -0.249924 -0.754607 0.000000
vt -0.156128 -0.783060 0.000000
vt -0.069684 -0.829265 0.000000
vt 0.006084 -0.891447 0.000000
vt 0.068265 -0.967215 0.000000
vt 0.114470 -1.053658 0.000000
vt 0.142923 -1.147455 0.000000
vt 0.152530 -1.245000 0.000000
vt 0.152530 -1.900000 0.000000
vt 0.160143 -1.938268 0.000000
vt 0.181820 -1.970711 0.000000
vt 0.214262 -1.992388 0.000000
vt 0.252530 -2.000000 0.000000
vt 1.252530 -2.000000 0.000000
vt 1.290799 -1.992388 0.000000
vt 1.323241 -1.970711 0.000000
vt 1.344918 -1.938268 0.000000
vt 1.352530 -1.900000 0.000000
vt -0.300000 0.078540 0.000000
vt -0.300000 0.039270 0.000000
vt -0.300000 0.000000 0.000000
vt -0.300000 -0.039270 0.000000
vt -0.300000 -0.078540 0.000000
vt -0.000000 -0.078540 0.000000
vt -0.000000 -0.039270 0.000000
vt -0.000000 0.000000 0.000000
vt -0.000000 0.039270 0.000000
vt -0.000000 0.078540 0.000000
vt -1.252530 2.000000 0.000000
vt -1.290799 1.992388 0.000000
vt -1.323241 1.970711 0.000000
vt -1.344918 1.938268 0.000000
vt -1.352530 1.900000 0.000000
vt -1.352530 -1.900000 0.000000
vt -1.344918 -1.938268 0.000000
vt -1.323241 -1.970711 0.000000
vt -1.290799 -1.992388 0.000000
vt -1.252530 -2.000000 0.000000
vt -0.252530 -2.000000 0.000000
vt -0.214262 -1.992388 0.000000
vt -0.181820 -1.970711 0.000000
vt -0.160143 -1.938268 0.000000
vt -0.152530 -1.900000 0.000000
vt -0.152530 -1.245000 0.000000
vt -0.142923 -1.147455 0.000000
vt -0.114470 -1.053658 0.000000
vt -0.068265 -0.967215 0.000000
vt -0.006084 -0.891447 0.000000
vt 0.069684 -0.829265 0.000000
vt 0.156128 -0.783060 0.000000
vt 0.249924 -0.754607 0.000000
vt 0.347470 -0.745000 0.000000
vt 0.967368 -0.745000 0.000000
vt 0.987598 -0.747179 0.000000
vt 1.006900 -0.753616 0.000000
vt 1.024389 -0.764015 0.000000
vt 1.077444 -0.792734 0.000000
vt 1.136561 -0.804771 0.000000
vt 1.196622 -0.799083 0.000000
vt 1.252429 -0.776163 0.000000
vt 1.299151 -0.737996 0.000000
vt 1.332744 -0.687884 0.000000
vt 1.350300 -0.630165 0.000000
vt 1.350300 -0.569835 0.000000
vt 1.332744 -0.512116 0.000000
vt 1.299151 -0.462004 0.000000
vt 1.252429 -0.423837 0.000000
vt 1.196622 -0.400917 0.000000
vt 1.136561 -0.395229 0.000000
vt 1.077444 -0.407266 0.000000
vt 1.024389 -0.435985 0.000000
vt 1.006900 -0.446384 0.000000
vt 0.987598 -0.452821 0.000000
vt 0.967368 -0.455000 0.000000
vt 0.339303 -0.455000 0.000000
vt 0.252876 -0.447474 0.000000
vt 0.169051 -0.425122 0.000000
vt 0.090351 -0.388616 0.000000
vt 0.019147 -0.339057 0.000000
vt -0.042420 -0.277936 0.000000
vt -0.092495 -0.207093 0.000000
vt -0.129570 -0.128660 0.000000
vt -0.152530 -0.045000 0.000000
vt -0.142923 0.052545 0.000000
vt -0.114470 0.146342 0.000000
vt -0.068265 0.232785 0.000000
vt -0.006084 0.308553 0.000000
vt 0.069684 0.370735 0.000000
vt 0.156128 0.416940 0.000000
vt 0.249924 0.445393 0.000000
vt 0.347470 0.455000 0.000000
vt 0.967368 0.455000 0.000000
vt 0.987598 0.452821 0.000000
vt 1.006900 0.446384 0.000000
vt 1.024389 0.435985 0.000000
vt 1.077444 0.407266 0.000000
vt 1.136561 0.395229 0.000000
vt 1.196622 0.400917 0.000000
vt 1.252429 0.423837 0.000000
vt 1.299151 0.462004 0.000000
vt 1.332744 0.512116 0.000000
vt 1.350300 0.569835 0.000000
vt 1.350300 0.630165 0.000000
vt 1.332744 0.687884 0.000000
vt 1.299151 0.737996 0.000000
vt 1.252429 0.776163 0.000000
vt 1.196622 0.799083 0.000000
vt 1.136561 0.804771 0.000000
vt 1.077444 0.792734 0.000000
vt 1.024389 0.764015 0.000000
vt 1.006900 0.753616 0.000000
vt 0.987598 0.747179 0.000000
vt 0.967368 0.745000 0.000000
vt 0.347470 0.745000 0.000000
vt 0.249924 0.754607 0.000000
vt 0.156128 0.783060 0.000000
vt 0.069684 0.829265 0.000000
vt -0.006084 0.891447 0.000000
vt -0.068265 0.967215 0.000000
vt -0.114470 1.053658 0.000000
vt -0.142923 1.147455 0.000000
vt -0.152530 1.245000 0.000000
vt -0.152530 1.900000 0.000000
vt -0.160143 1.938268 0.000000
vt -0.181820 1.970711 0.000000
vt -0.214262 1.992388 0.000000
vt -0.252530 2.000000 0.000000
vt -0.300000 0.078540 0.000000
vt -0.300000 0.039270 0.000000
vt -0.300000 0.000000 0.000000
vt -0.300000 -0.039270 0.000000
vt -0.300000 -0.078540 0.000000
vt -0.000000 -0.078540 0.000000
vt -0.000000 -0.039270 0.000000
vt -0.000000 0.000000 0.000000
vt -0.000000 0.039270 0.000000
vt -0.000000 0.078540 0.000000
vt 3.900000 0.000000 0.000000
vt 3.900000 0.300000 0.000000
vt 0.100000 0.300000 0.000000
vt 0.100000 0.000000 0.000000
vt -0.300000 0.078540 0.000000
vt -0.300000 0.039270 0.000000
vt -0.300000 0.000000 0.000000
vt -0.300000 -0.039270 0.000000
vt -0.300000 -0.078540 0.000000
vt -0.000000 -0.078540 0.000000
vt -0.000000 -0.039270 0.000000
vt -0.000000 0.000000 0.000000
vt -0.000000 0.039270 0.000000
vt -0.000000 0.078540 0.000000
vt 0.755000 0.000000 0.000000
vt 0.755000 0.300000 0.000000
vt 0.100000 0.300000 0.000000
vt 0.100000 0.000000 0.000000
vt 0.000000 0.030579 0.000000
vt 0.000000 0.010193 0.000000
vt 0.000000 -0.010193 0.000000
vt 0.000000 -0.030579 0.000000
vt 0.300000 -0.030579 0.000000
vt 0.300000 -0.010193 0.000000
vt 0.300000 0.010193 0.000000
vt 0.300000 0.030579 0.000000
vt -0.300000 0.029042 0.000000
vt -0.000000 0.029042 0.000000
vt -0.000000 0.089592 0.000000
vt -0.000000 0.150141 0.000000
vt -0.000000 0.210691 0.000000
vt -0.000000 0.271240 0.000000
vt -0.000000 0.331790 0.000000
vt -0.000000 0.392339 0.000000
vt -0.000000 0.452889 0.000000
vt -0.000000 0.513438 0.000000
vt -0.000000 0.573988 0.000000
vt -0.000000 0.634537 0.000000
vt -0.000000 0.695087 0.000000
vt -0.000000 0.755636 0.000000
vt -0.000000 0.816186 0.000000
vt -0.000000 0.876736 0.000000
vt -0.000000 0.937285 0.000000
vt -0.300000 0.937285 0.000000
vt -0.300000 0.876736 0.000000
vt -0.300000 0.816186 0.000000
vt -0.300000 0.755636 0.000000
vt -0.300000 0.695087 0.000000
vt -0.300000 0.634537 0.000000
vt -0.300000 0.573988 0.000000
vt -0.300000 0.513438 0.000000
vt -0.300000 0.452889 0.000000
vt -0.300000 0.392339 0.000000
vt -0.300000 0.331790 0.000000
vt -0.300000 0.271240 0.000000
vt -0.300000 0.210691 0.000000
vt -0.300000 0.150141 0.000000
vt -0.300000 0.089592 0.000000
vt 0.000000 0.030579 0.000000
vt 0.000000 0.010193 0.000000
vt 0.000000 -0.010193 0.000000
vt 0.000000 -0.030579 0.000000
vt 0.300000 -0.030579 0.000000
vt 0.300000 -0.010193 0.000000
vt 0.300000 0.010193 0.000000
vt 0.300000 0.030579 0.000000
vt 0.491833 0.300000 0.000000
vt 0.491833 0.000000 0.000000
vt 1.119898 0.000000 0.000000
vt 1.119898 0.300000 0.000000
vt 0.000000 0.030579 0.000000
vt 0.000000 0.010193 0.000000
vt 0.000000 -0.010193 0.000000
vt 0.000000 -0.030579 0.000000
vt 0.300000 -0.030579 0.000000
vt 0.300000 -0.010193 0.000000
vt 0.300000 0.010193 0.000000
vt 0.300000 0.030579 0.000000
vt -0.300000 0.029042 0.000000
vt -0.000000 0.029042 0.000000
vt -0.000000 0.089592 0.000000
vt -0.000000 0.150141 0.000000
vt -0.000000 0.210691 0.000000
vt -0.000000 0.271240 0.000000
vt -0.000000 0.331790 0.000000
vt -0.000000 0.392339 0.000000
vt -0.000000 0.452889 0.000000
vt -0.000000 0.513438 0.000000
vt -0.000000 0.573988 0.000000
vt -0.000000 0.634537 0.000000
vt -0.000000 0.695087 0.000000
vt -0.000000 0.755636 0.000000
vt -0.000000 0.816186 0.000000
vt -0.000000 0.876736 0.000000
vt -0.000000 0.937285 0.000000
vt -0.300000 0.937285 0.000000
vt -0.300000 0.876736 0.000000
vt -0.300000 0.816186 0.000000
vt -0.300000 0.755636 0.000000
vt -0.300000 0.695087 0.000000
vt -0.300000 0.634537 0.000000
vt -0.300000 0.573988 0.000000
vt -0.300000 0.513438 0.000000
vt -0.300000 0.452889 0.000000
vt -0.300000 0.392339 0.000000
vt -0.300000 0.331790 0.000000
vt -0.300000 0.271240 0.000000
vt -0.300000 0.210691 0.000000
vt -0.300000 0.150141 0.000000
vt -0.300000 0.089592 0.000000
vt 0.000000 0.030579 0.000000
vt 0.000000 0.010193 0.000000
vt 0.000000 -0.010193 0.000000
vt 0.000000 -0.030579 0.000000
vt 0.300000 -0.030579 0.000000
vt 0.300000 -0.010193 0.000000
vt 0.300000 0.010193 0.000000
vt 0.300000 0.030579 0.000000
vt 0.655000 0.000000 0.000000
vt 0.655000 0.300000 0.000000
vt 0.035102 0.300000 0.000000
vt 0.035102 0.000000 0.000000
vt 1.100000 0.000000 0.000000
vt 1.100000 0.300000 0.000000
vt 0.100000 0.300000 0.000000
vt 0.100000 0.000000 0.000000
vt 0.655000 0.000000 0.000000
vt 0.655000 0.300000 0.000000
vt 0.035102 0.300000 0.000000
vt 0.035102 0.000000 0.000000
vt 0.500000 0.300000 0.000000
vt 0.500000 0.000000 0.000000
vt 1.119898 0.000000 0.000000
vt 1.119898 0.300000 0.000000
vt 0.000000 0.392699 0.000000
vt 0.000000 0.294524 0.000000
vt 0.000000 0.196350 0.000000
vt 0.000000 0.098175 0.000000
vt 0.000000 0.000000 0.000000
vt 0.000000 -0.098175 0.000000
vt 0.000000 -0.196350 0.000000
vt 0.000000 -0.294524 0.000000
vt 0.000000 -0.392699 0.000000
vt 0.300000 -0.392699 0.000000
vt 0.300000 -0.294524 0.000000
vt 0.300000 -0.196350 0.000000
vt 0.300000 -0.098175 0.000000
vt 0.300000 0.000000 0.000000
vt 0.300000 0.098175 0.000000
vt 0.300000 0.196350 0.000000
vt 0.300000 0.294524 0.000000
vt 0.300000 0.392699 0.000000
vt 0.000000 0.000000 0.000000
vt 0.000000 0.086863 0.000000
vt 0.000000 0.173726 0.000000
vt 0.000000 0.260589 0.000000
vt 0.000000 0.347452 0.000000
vt 0.000000 0.434316 0.000000
vt 0.000000 0.521179 0.000000
vt 0.000000 0.608042 0.000000
vt 0.000000 0.694905 0.000000
vt -0.300000 0.694905 0.000000
vt -0.300000 0.608042 0.000000
vt -0.300000 0.521179 0.000000
vt -0.300000 0.434316 0.000000
vt -0.300000 0.347452 0.000000
vt -0.300000 0.260589 0.000000
vt -0.300000 0.173726 0.000000
vt -0.300000 0.086863 0.000000
vt -0.300000 0.000000 0.000000
vt 0.000000 0.392699 0.000000
vt 0.000000 0.294524 0.000000
vt 0.000000 0.196350 0.000000
vt 0.000000 0.098175 0.000000
vt 0.000000 0.000000 0.000000
vt 0.000000 -0.098175 0.000000
vt 0.000000 -0.196350 0.000000
vt 0.000000 -0.294524 0.000000
vt 0.000000 -0.392699 0.000000
vt 0.300000 -0.392699 0.000000
vt 0.300000 -0.294524 0.000000
vt 0.300000 -0.196350 0.000000
vt 0.300000 -0.098175 0.000000
vt 0.300000 0.000000 0.000000
vt 0.300000 0.098175 0.000000
vt 0.300000 0.196350 0.000000
vt 0.300000 0.294524 0.000000
vt 0.300000 0.392699 0.000000
vt 0.500000 0.300000 0.000000
vt 0.500000 0.000000 0.000000
vt 1.155000 0.000000 0.000000
vt 1.155000 0.300000 0.000000
vt 0.000000 0.392699 0.000000
vt 0.000000 0.294524 0.000000
vt 0.000000 0.196350 0.000000
vt 0.000000 0.098175 0.000000
vt 0.000000 0.000000 0.000000
vt 0.000000 -0.098175 0.000000
vt 0.000000 -0.196350 0.000000
vt 0.000000 -0.294524 0.000000
vt 0.000000 -0.392699 0.000000
vt 0.300000 -0.392699 0.000000
vt 0.300000 -0.294524 0.000000
vt 0.300000 -0.196350 0.000000
vt 0.300000 -0.098175 0.000000
vt 0.300000 0.000000 0.000000
vt 0.300000 0.098175 0.000000
vt 0.300000 0.196350 0.000000
vt 0.300000 0.294524 0.000000
vt 0.300000 0.392699 0.000000
vn 0.000000 0.100000 0.000000
vn 0.038268 0.092388 0.000000
vn 0.070711 0.070711 0.000000
vn 0.092388 0.038268 0.000000
vn 0.100000 0.000000 0.000000
vn 0.100000 0.000000 0.000000
vn 0.092388 0.038268 0.000000
vn 0.070711 0.070711 0.000000
vn 0.038268 0.092388 0.000000
vn 0.000000 0.100000 0.000000
vn 0.000000 0.100000 0.000000
vn 0.000000 0.100000 0.000000
vn 0.000000 0.100000 0.000000
vn 0.000000 0.100000 0.000000
vn 0.000000 0.000000 0.100000
vn 0.000000 0.000000 0.100000
vn 0.000000 0.000000 0.100000
vn 0.000000 0.000000 0.100000
vn 0.000000 0.000000 0.100000
vn 0.000000 0.000000 0.100000
vn 0.000000 0.000000 0.100000
vn 0.000000 0.000000 0.100000
vn 0.000000 0.000000 0.100000
vn 0.000000 0.000000 0.100000
vn 0.000000 0.000000 0.100000
vn 0.000000 0.000000 0.100000
vn 0.000000 0.000000 0.100000
vn 0.000000 0.000000 0.100000
vn 0.000000 0.000000 0.100000
vn 0.000000 0.000000 0.100000
vn 0.000000 0.000000 0.100000
vn 0.000000 0.000000 0.100000
vn 0.000000 0.000000 0.100000
vn 0.000000 0.000000 0.100000
vn 0.000000 0.000000 0.100000
vn 0.000000 0.000000 0.100000
vn 0.000000 0.000000 0.100000
vn 0.000000 0.000000 0.100000
vn 0.000000 0.000000 0.100000
vn 0.000000 0.000000 0.100000
vn 0.000000 0.000000 0.100000
vn 0.000000 0.000000 0.100000
vn 0.000000 0.000000 0.100000
vn 0.000000 0.000000 0.100000
vn 0.000000 0.000000 0.100000
vn 0.000000 0.000000 0.100000
vn 0.000000 0.000000 0.100000
vn 0.000000 0.000000 0.100000
vn 0.000000 0.000000 0.100000
vn 0.000000 0.000000 0.100000
vn 0.000000 0.000000 0.100000
vn 0.000000 0.000000 0.100000
vn 0.000000 0.000000 0.100000
vn 0.000000 0.000000 0.100000
vn 0.000000 0.000000 0.100000
vn 0.000000 0.000000 0.100000
vn 0.000000 0.000000 0.100000
vn 0.000000 0.000000 0.100000
vn 0.000000 0.000000 0.100000
vn 0.000000 0.000000 0.100000
vn 0.000000 0.000000 0.100000
vn 0.000000 0.000000 0.100000
vn 0.000000 0.000000 0.100000
vn 0.000000 0.000000 0.100000
vn 0.000000 0.000000 0.100000
vn 0.000000 0.000000 0.100000
vn 0.000000 0.000000 0.100000
vn 0.000000 0.000000 0.100000
vn 0.000000 0.000000 0.100000
vn 0.000000 0.000000 0.100000
vn 0.000000 0.000000 0.100000
vn 0.000000 0.000000 0.100000
vn 0.000000 0.000000 0.100000
vn 0.000000 0.000000 0.100000
vn 0.000000 0.000000 0.100000
vn 0.000000 0.000000 0.100000
vn 0.000000 0.000000 0.100000
vn 0.000000 0.000000 0.100000
vn 0.000000 0.000000 0.100000
vn 0.000000 0.000000 0.100000
vn 0.000000 0.000000 0.100000
vn 0.000000 0.000000 0.100000
vn 0.000000 0.000000 0.100000
vn 0.000000 0.000000 0.100000
vn 0.000000 0.000000 0.100000
vn 0.000000 0.000000 0.100000
vn 0.000000 0.000000 0.100000
vn 0.000000 0.000000 0.100000
vn 0.000000 0.000000 0.100000
vn 0.000000 0.000000 0.100000
vn 0.000000 0.000000 0.100000
vn 0.000000 0.000000 0.100000
vn 0.000000 0.000000 0.100000
vn 0.000000 0.000000 0.100000
vn 0.000000 0.000000 0.100000
vn 0.000000 0.000000 0.100000
vn 0.000000 0.000000 0.100000
vn 0.000000 0.000000 0.100000
vn 0.000000 0.000000 0.100000
vn 0.000000 0.000000 0.100000
vn 0.000000 0.000000 0.100000
vn 0.000000 0.000000 0.100000
vn 0.000000 0.000000 0.100000
vn 0.000000 0.000000 0.100000
vn 0.000000 0.000000 0.100000
vn 0.000000 0.000000 0.100000
vn 0.000000 0.000000 0.100000
vn 0.000000 0.000000 0.100000
vn 0.000000 0.000000 0.100000
vn 0.000000 0.000000 0.100000
vn 0.000000 0.000000 0.100000
vn 0.000000 0.000000 0.100000
vn 0.000000 0.000000 0.100000
vn -0.100000 0.000000 0.000000
vn -0.092388 0.038268 0.000000
vn -0.070711 0.070711 0.000000
vn -0.038268 0.092388 0.000000
vn 0.000000 0.100000 0.000000
vn 0.000000 0.100000 0.000000
vn -0.038268 0.092388 0.000000
vn -0.070711 0.070711 0.000000
vn -0.092388 0.038268 0.000000
vn -0.100000 0.000000 0.000000
vn 0.000000 0.000000 -0.100000
vn 0.000000 0.000000 -0.100000
vn 0.000000 0.000000 -0.100000
vn 0.000000 0.000000 -0.100000
vn 0.000000 0.000000 -0.100000
vn 0.000000 0.000000 -0.100000
vn 0.000000 0.000000 -0.100000
vn 0.000000 0.000000 -0.100000
vn 0.000000 0.000000 -0.100000
vn 0.000000 0.000000 -0.100000
vn 0.000000 0.000000 -0.100000
vn 0.000000 0.000000 -0.100000
vn 0.000000 0.000000 -0.100000
vn 0.000000 0.000000 -0.100000
vn 0.000000 0.000000 -0.100000
vn 0.000000 0.000000 -0.100000
vn 0.000000 0.000000 -0.100000
vn 0.000000 0.000000 -0.100000
vn 0.000000 0.000000 -0.100000
vn 0.000000 0.000000 -0.100000
vn 0.000000 0.000000 -0.100000
vn 0.000000 0.000000 -0.100000
vn 0.000000 0.000000 -0.100000
vn 0.000000 0.000000 -0.100000
vn 0.000000 0.000000 -0.100000
vn 0.000000 0.000000 -0.100000
vn 0.000000 0.000000 -0.100000
vn 0.000000 0.000000 -0.100000
vn 0.000000 0.000000 -0.100000
vn 0.000000 0.000000 -0.100000
vn 0.000000 0.000000 -0.100000
vn 0.000000 0.000000 -0.100000
vn 0.000000 0.000000 -0.100000
vn 0.000000 0.000000 -0.100000
vn 0.000000 0.000000 -0.100000
vn 0.000000 0.000000 -0.100000
vn 0.000000 0.000000 -0.100000
vn 0.000000 0.000000 -0.100000
vn 0.000000 0.000000 -0.100000
vn 0.000000 0.000000 -0.100000
vn 0.000000 0.000000 -0.100000
vn 0.000000 0.000000 -0.100000
vn 0.000000 0.000000 -0.100000
vn 0.000000 0.000000 -0.100000
vn 0.000000 0.000000 -0.100000
vn 0.000000 0.000000 -0.100000
vn 0.000000 0.000000 -0.100000
vn 0.000000 0.000000 -0.100000
vn 0.000000 0.000000 -0.100000
vn 0.000000 0.000000 -0.100000
vn 0.000000 0.000000 -0.100000
vn 0.000000 0.000000 -0.100000
vn 0.000000 0.000000 -0.100000
vn 0.000000 0.000000 -0.100000
vn 0.000000 0.000000 -0.100000
vn 0.000000 0.000000 -0.100000
vn 0.000000 0.000000 -0.100000
vn 0.000000 0.000000 -0.100000
vn 0.000000 0.000000 -0.100000
vn 0.000000 0.000000 -0.100000
vn 0.000000 0.000000 -0.100000
vn 0.000000 0.000000 -0.100000
vn 0.000000 0.000000 -0.100000
vn 0.000000 0.000000 -0.100000
vn 0.000000 0.000000 -0.100000
vn 0.000000 0.000000 -0.100000
vn 0.000000 0.000000 -0.100000
vn 0.000000 0.000000 -0.100000
vn 0.000000 0.000000 -0.100000
vn 0.000000 0.000000 -0.100000
vn 0.000000 0.000000 -0.100000
vn 0.000000 0.000000 -0.100000
vn 0.000000 0.000000 -0.100000
vn 0.000000 0.000000 -0.100000
vn 0.000000 0.000000 -0.100000
vn 0.000000 0.000000 -0.100000
vn 0.000000 0.000000 -0.100000
vn 0.000000 0.000000 -0.100000
vn 0.000000 0.000000 -0.100000
vn 0.000000 0.000000 -0.100000
vn 0.000000 0.000000 -0.100000
vn 0.000000 0.000000 -0.100000
vn 0.000000 0.000000 -0.100000
vn 0.000000 0.000000 -0.100000
vn 0.000000 0.000000 -0.100000
vn 0.000000 0.000000 -0.100000
vn 0.000000 0.000000 -0.100000
vn 0.000000 0.000000 -0.100000
vn 0.000000 0.000000 -0.100000
vn 0.000000 0.000000 -0.100000
vn 0.000000 0.000000 -0.100000
vn 0.000000 0.000000 -0.100000
vn 0.000000 0.000000 -0.100000
vn 0.000000 0.000000 -0.100000
vn 0.000000 0.000000 -0.100000
vn 0.000000 0.000000 -0.100000
vn 0.000000 0.000000 -0.100000
vn 0.000000 0.000000 -0.100000
vn 0.000000 0.000000 -0.100000
vn 0.100000 0.000000 0.000000
vn 0.092388 -0.038268 0.000000
vn 0.070711 -0.070711 0.000000
vn 0.038268 -0.092388 0.000000
vn 0.000000 -0.100000 0.000000
vn 0.000000 -0.100000 0.000000
vn 0.038268 -0.092388 0.000000
vn 0.070711 -0.070711 0.000000
vn 0.092388 -0.038268 0.000000
vn 0.100000 0.000000 0.000000
vn 0.100000 0.000000 0.000000
vn 0.100000 0.000000 0.000000
vn 0.100000 0.000000 0.000000
vn 0.100000 0.000000 0.000000
vn 0.000000 -0.100000 0.000000
vn -0.038268 -0.092388 0.000000
vn -0.070711 -0.070711 0.000000
vn -0.092388 -0.038268 0.000000
vn -0.100000 0.000000 0.000000
vn -0.100000 0.000000 0.000000
vn -0.092388 -0.038268 0.000000
vn -0.070711 -0.070711 0.000000
vn -0.038268 -0.092388 0.000000
vn 0.000000 -0.100000 0.000000
vn -0.100000 0.000000 0.000000
vn -0.100000 0.000000 0.000000
vn -0.100000 0.000000 0.000000
vn -0.100000 0.000000 0.000000
vn 0.000000 0.100000 0.000000
vn 0.021295 0.097706 0.000000
vn 0.041613 0.090931 0.000000
vn 0.060022 0.079984 0.000000
vn 0.060022 0.079984 0.000000
vn 0.041613 0.090931 0.000000
vn 0.021295 0.097706 0.000000
vn 0.000000 0.100000 0.000000
vn 0.060022 0.079984 0.000000
vn 0.060022 0.079984 0.000000
vn 0.034148 0.093989 0.000000
vn 0.005320 0.099858 0.000000
vn -0.023970 0.097085 0.000000
vn -0.051185 0.085908 0.000000
vn -0.073969 0.067295 0.000000
vn -0.090351 0.042857 0.000000
vn -0.098912 0.014710 0.000000
vn -0.098912 -0.014710 0.000000
vn -0.090351 -0.042857 0.000000
vn -0.073969 -0.067295 0.000000
vn -0.051185 -0.085908 0.000000
vn -0.023970 -0.097085 0.000000
vn 0.005320 -0.099858 0.000000
vn 0.034148 -0.093989 0.000000
vn 0.060022 -0.079984 0.000000
vn 0.060022 -0.079984 0.000000
vn 0.034148 -0.093989 0.000000
vn 0.005320 -0.099858 0.000000
vn -0.023970 -0.097085 0.000000
vn -0.051185 -0.085908 0.000000
vn -0.073969 -0.067295 0.000000
vn -0.090351 -0.042857 0.000000
vn -0.098912 -0.014710 0.000000
vn -0.098912 0.014710 0.000000
vn -0.090351 0.042857 0.000000
vn -0.073969 0.067295 0.000000
vn -0.051185 0.085908 0.000000
vn -0.023970 0.097085 0.000000
vn 0.005320 0.099858 0.000000
vn 0.034148 0.093989 0.000000
vn 0.060022 -0.079984 0.000000
vn 0.041613 -0.090931 0.000000
vn 0.021295 -0.097706 0.000000
vn 0.000000 -0.100000 0.000000
vn 0.000000 -0.100000 0.000000
vn 0.021295 -0.097706 0.000000
vn 0.041613 -0.090931 0.000000
vn 0.060022 -0.079984 0.000000
vn 0.000000 0.100000 0.000000
vn 0.000000 0.100000 0.000000
vn 0.000000 0.100000 0.000000
vn 0.000000 0.100000 0.000000
vn 0.000000 0.100000 0.000000
vn 0.021295 0.097706 0.000000
vn 0.041613 0.090931 0.000000
vn 0.060022 0.079984 0.000000
vn 0.060022 0.079984 0.000000
vn 0.041613 0.090931 0.000000
vn 0.021295 0.097706 0.000000
vn 0.000000 0.100000 0.000000
vn 0.060022 0.079984 0.000000
vn 0.060022 0.079984 0.000000
vn 0.034148 0.093989 0.000000
vn 0.005320 0.099858 0.000000
vn -0.023970 0.097085 0.000000
vn -0.051185 0.085908 0.000000
vn -0.073969 0.067295 0.000000
vn -0.090351 0.042857 0.000000
vn -0.098912 0.014710 0.000000
vn -0.098912 -0.014710 0.000000
vn -0.090351 -0.042857 0.000000
vn -0.073969 -0.067295 0.000000
vn -0.051185 -0.085908 0.000000
vn -0.023970 -0.097085 0.000000
vn 0.005320 -0.099858 0.000000
vn 0.034148 -0.093989 0.000000
vn 0.060022 -0.079984 0.000000
vn 0.060022 -0.079984 0.000000
vn 0.034148 -0.093989 0.000000
vn 0.005320 -0.099858 0.000000
vn -0.023970 -0.097085 0.000000
vn -0.051185 -0.085908 0.000000
vn -0.073969 -0.067295 0.000000
vn -0.090351 -0.042857 0.000000
vn -0.098912 -0.014710 0.000000
vn -0.098912 0.014710 0.000000
vn -0.090351 0.042857 0.000000
vn -0.073969 0.067295 0.000000
vn -0.051185 0.085908 0.000000
vn -0.023970 0.097085 0.000000
vn 0.005320 0.099858 0.000000
vn 0.034148 0.093989 0.000000
vn 0.060022 -0.079984 0.000000
vn 0.041613 -0.090931 0.000000
vn 0.021295 -0.097706 0.000000
vn 0.000000 -0.100000 0.000000
vn 0.000000 -0.100000 0.000000
vn 0.021295 -0.097706 0.000000
vn 0.041613 -0.090931 0.000000
vn 0.060022 -0.079984 0.000000
vn 0.000000 -0.100000 0.000000
vn 0.000000 -0.100000 0.000000
vn 0.000000 -0.100000 0.000000
vn 0.000000 -0.100000 0.000000
vn 0.000000 -0.100000 0.000000
vn 0.000000 -0.100000 0.000000
vn 0.000000 -0.100000 0.000000
vn 0.000000 -0.100000 0.000000
vn 0.000000 -0.100000 0.000000
vn 0.000000 -0.100000 0.000000
vn 0.000000 -0.100000 0.000000
vn 0.000000 -0.100000 0.000000
vn 0.000000 0.100000 0.000000
vn 0.000000 0.100000 0.000000
vn 0.000000 0.100000 0.000000
vn 0.000000 0.100000 0.000000
vn -0.100000 0.000000 0.000000
vn -0.098079 0.019509 0.000000
vn -0.092388 0.038268 0.000000
vn -0.083147 0.055557 0.000000
vn -0.070711 0.070711 0.000000
vn -0.055557 0.083147 0.000000
vn -0.038268 0.092388 0.000000
vn -0.019509 0.098079 0.000000
vn 0.000000 0.100000 0.000000
vn 0.000000 0.100000 0.000000
vn -0.019509 0.098079 0.000000
vn -0.038268 0.092388 0.000000
vn -0.055557 0.083147 0.000000
vn -0.070711 0.070711 0.000000
vn -0.083147 0.055557 0.000000
vn -0.092388 0.038268 0.000000
vn -0.098079 0.019509 0.000000
vn -0.100000 0.000000 0.000000
vn -0.098367 0.018000 0.000000
vn -0.093775 0.034732 0.000000
vn -0.086360 0.050419 0.000000
vn -0.076345 0.064587 0.000000
vn -0.064031 0.076811 0.000000
vn -0.049790 0.086723 0.000000
vn -0.034050 0.094024 0.000000
vn -0.017285 0.098495 0.000000
vn 0.000000 0.100000 0.000000
vn 0.000000 0.100000 0.000000
vn -0.017285 0.098495 0.000000
vn -0.034050 0.094024 0.000000
vn -0.049790 0.086723 0.000000
vn -0.064031 0.076811 0.000000
vn -0.076345 0.064587 0.000000
vn -0.086360 0.050419 0.000000
vn -0.093775 0.034732 0.000000
vn -0.098367 0.018000 0.000000
vn 0.000000 -0.100000 0.000000
vn -0.019509 -0.098079 0.000000
vn -0.038268 -0.092388 0.000000
vn -0.055557 -0.083147 0.000000
vn -0.070711 -0.070711 0.000000
vn -0.083147 -0.055557 0.000000
vn -0.092388 -0.038268 0.000000
vn -0.098079 -0.019509 0.000000
vn -0.100000 0.000000 0.000000
vn -0.100000 0.000000 0.000000
vn -0.098079 -0.019509 0.000000
vn -0.092388 -0.038268 0.000000
vn -0.083147 -0.055557 0.000000
vn -0.070711 -0.070711 0.000000
vn -0.055557 -0.083147 0.000000
vn -0.038268 -0.092388 0.000000
vn -0.019509 -0.098079 0.000000
vn 0.000000 -0.100000 0.000000
vn -0.100000 0.000000 0.000000
vn -0.100000 0.000000 0.000000
vn -0.100000 0.000000 0.000000
vn -0.100000 0.000000 0.000000
vn 0.000000 -0.100000 0.000000
vn -0.019509 -0.098079 0.000000
vn -0.038268 -0.092388 0.000000
vn -0.055557 -0.083147 0.000000
vn -0.070711 -0.070711 0.000000
vn -0.083147 -0.055557 0.000000
vn -0.092388 -0.038268 0.000000
vn -0.098079 -0.019509 0.000000
vn -0.100000 0.000000 0.000000
vn -0.100000 0.000000 0.000000
vn -0.098079 -0.019509 0.000000
vn -0.092388 -0.038268 0.000000
vn -0.083147 -0.055557 0.000000
vn -0.070711 -0.070711 0.000000
vn -0.055557 -0.083147 0.000000
vn -0.038268 -0.092388 0.000000
vn -0.019509 -0.098079 0.000000
vn 0.000000 -0.100000 0.000000
usemtl 191,191,191
f 181/10/10 182/1/1 185/9/9
f 185/9/9 182/1/1 186/2/2
f 185/9/9 186/2/2 189/8/8
f 189/8/8 186/2/2 190/3/3
f 189/8/8 190/3/3 193/7/7
f 193/7/7 190/3/3 194/4/4
f 193/7/7 194/4/4 197/6/6
f 197/6/6 194/4/4 198/5/5
f 181/12/12 177/13/13 182/11/11
f 182/11/11 177/13/13 178/14/14
f 194/16/16 190/17/17 198/15/15
f 198/15/15 190/17/17 186/18/18
f 198/15/15 186/18/18 182/19/19
f 198/15/15 182/19/19 160/25/25
f 160/25/25 182/19/19 178/20/20
f 160/25/25 178/20/20 162/24/24
f 162/24/24 178/20/20 174/21/21
f 162/24/24 174/21/21 170/22/22
f 170/22/22 166/23/23 162/24/24
f 160/25/25 152/26/26 198/15/15
f 198/15/15 152/26/26 150/63/63
f 198/15/15 150/63/63 158/64/64
f 150/63/63 152/26/26 142/62/62
f 142/62/62 152/26/26 144/27/27
f 142/62/62 144/27/27 134/61/61
f 134/61/61 144/27/27 136/28/28
f 134/61/61 136/28/28 128/29/29
f 134/61/61 128/29/29 126/60/60
f 126/60/60 128/29/29 120/30/30
f 126/60/60 120/30/30 118/59/59
f 118/59/59 120/30/30 112/31/31
f 118/59/59 112/31/31 110/58/58
f 110/58/58 112/31/31 104/32/32
f 110/58/58 104/32/32 102/57/57
f 102/57/57 104/32/32 94/33/33
f 102/57/57 94/33/33 92/56/56
f 92/56/56 94/33/33 88/34/34
f 92/56/56 88/34/34 86/55/55
f 86/55/55 88/34/34 78/54/54
f 78/54/54 88/34/34 80/35/35
f 78/54/54 80/35/35 70/53/53
f 70/53/53 80/35/35 72/36/36
f 70/53/53 72/36/36 62/52/52
f 62/52/52 72/36/36 64/37/37
f 62/52/52 64/37/37 54/51/51
f 54/51/51 64/37/37 56/38/38
f 54/51/51 56/38/38 46/50/50
f 46/50/50 56/38/38 48/39/39
f 46/50/50 48/39/39 40/40/40
f 46/50/50 40/40/40 38/49/49
f 38/49/49 40/40/40 32/41/41
f 38/49/49 32/41/41 30/48/48
f 30/48/48 32/41/41 24/42/42
f 30/48/48 24/42/42 22/47/47
f 22/47/47 24/42/42 14/46/46
f 14/46/46 24/42/42 16/43/43
f 14/46/46 16/43/43 6/45/45
f 6/45/45 16/43/43 8/44/44
f 198/15/15 158/64/64 196/113/113
f 196/113/113 158/64/64 146/65/65
f 196/113/113 146/65/65 148/102/102
f 148/102/102 146/65/65 140/101/101
f 140/101/101 146/65/65 138/66/66
f 140/101/101 138/66/66 132/100/100
f 132/100/100 138/66/66 130/67/67
f 132/100/100 130/67/67 124/99/99
f 124/99/99 130/67/67 122/68/68
f 124/99/99 122/68/68 116/98/98
f 116/98/98 122/68/68 114/69/69
f 116/98/98 114/69/69 108/97/97
f 108/97/97 114/69/69 106/70/70
f 108/97/97 106/70/70 100/96/96
f 100/96/96 106/70/70 98/71/71
f 100/96/96 98/71/71 96/72/72
f 100/96/96 96/72/72 90/95/95
f 90/95/95 96/72/72 84/73/73
f 90/95/95 84/73/73 82/94/94
f 82/94/94 84/73/73 74/93/93
f 74/93/93 84/73/73 76/74/74
f 74/93/93 76/74/74 66/92/92
f 66/92/92 76/74/74 68/75/75
f 66/92/92 68/75/75 58/91/91
f 58/91/91 68/75/75 60/76/76
f 58/91/91 60/76/76 50/90/90
f 50/90/90 60/76/76 52/77/77
f 50/90/90 52/77/77 42/89/89
f 42/89/89 52/77/77 44/78/78
f 42/89/89 44/78/78 36/79/79
f 42/89/89 36/79/79 34/88/88
f 34/88/88 36/79/79 28/80/80
f 34/88/88 28/80/80 26/87/87
f 26/87/87 28/80/80 20/81/81
f 26/87/87 20/81/81 18/86/86
f 18/86/86 20/81/81 10/85/85
f 10/85/85 20/81/81 12/82/82
f 10/85/85 12/82/82 2/84/84
f 2/84/84 12/82/82 4/83/83
f 148/102/102 156/103/103 196/113/113
f 196/113/113 156/103/103 180/109/109
f 196/113/113 180/109/109 184/110/110
f 180/109/109 156/103/103 176/108/108
f 176/108/108 156/103/103 154/104/104
f 176/108/108 154/104/104 172/107/107
f 172/107/107 154/104/104 168/106/106
f 168/106/106 154/104/104 164/105/105
f 184/110/110 188/111/111 196/113/113
f 196/113/113 188/111/111 192/112/112
f 161/123/123 162/114/114 165/122/122
f 165/122/122 162/114/114 166/115/115
f 165/122/122 166/115/115 169/121/121
f 169/121/121 166/115/115 170/116/116
f 169/121/121 170/116/116 173/120/120
f 173/120/120 170/116/116 174/117/117
f 173/120/120 174/117/117 177/119/119
f 177/119/119 174/117/117 178/118/118
f 185/125/125 197/128/128 181/124/124
f 181/124/124 197/128/128 159/217/217
f 181/124/124 159/217/217 177/222/222
f 177/222/222 159/217/217 161/218/218
f 177/222/222 161/218/218 173/221/221
f 173/221/221 161/218/218 169/220/220
f 169/220/220 161/218/218 165/219/219
f 185/125/125 189/126/126 197/128/128
f 197/128/128 189/126/126 193/127/127
f 195/129/129 157/178/178 197/128/128
f 197/128/128 157/178/178 149/179/179
f 197/128/128 149/179/179 151/216/216
f 151/216/216 149/179/179 141/180/180
f 151/216/216 141/180/180 143/215/215
f 143/215/215 141/180/180 133/181/181
f 143/215/215 133/181/181 135/214/214
f 135/214/214 133/181/181 127/213/213
f 127/213/213 133/181/181 125/182/182
f 127/213/213 125/182/182 119/212/212
f 119/212/212 125/182/182 117/183/183
f 119/212/212 117/183/183 111/211/211
f 111/211/211 117/183/183 109/184/184
f 111/211/211 109/184/184 103/210/210
f 103/210/210 109/184/184 101/185/185
f 103/210/210 101/185/185 93/209/209
f 93/209/209 101/185/185 91/186/186
f 93/209/209 91/186/186 85/187/187
f 191/130/130 187/131/131 195/129/129
f 195/129/129 187/131/131 183/132/132
f 195/129/129 183/132/132 179/133/133
f 195/129/129 179/133/133 155/139/139
f 155/139/139 179/133/133 175/134/134
f 155/139/139 175/134/134 153/138/138
f 153/138/138 175/134/134 171/135/135
f 153/138/138 171/135/135 167/136/136
f 167/136/136 163/137/137 153/138/138
f 155/139/139 147/140/140 195/129/129
f 195/129/129 147/140/140 145/177/177
f 195/129/129 145/177/177 157/178/178
f 147/140/140 139/141/141 145/177/177
f 145/177/177 139/141/141 137/176/176
f 137/176/176 139/141/141 131/142/142
f 137/176/176 131/142/142 129/175/175
f 129/175/175 131/142/142 123/143/143
f 129/175/175 123/143/143 121/174/174
f 121/174/174 123/143/143 115/144/144
f 121/174/174 115/144/144 113/173/173
f 113/173/173 115/144/144 107/145/145
f 113/173/173 107/145/145 105/172/172
f 105/172/172 107/145/145 99/146/146
f 105/172/172 99/146/146 97/171/171
f 97/171/171 99/146/146 95/170/170
f 95/170/170 99/146/146 89/147/147
f 95/170/170 89/147/147 83/169/169
f 83/169/169 89/147/147 81/148/148
f 83/169/169 81/148/148 73/149/149
f 65/150/150 67/167/167 73/149/149
f 73/149/149 67/167/167 75/168/168
f 73/149/149 75/168/168 83/169/169
f 67/167/167 65/150/150 59/166/166
f 59/166/166 65/150/150 57/151/151
f 59/166/166 57/151/151 51/165/165
f 51/165/165 57/151/151 49/152/152
f 51/165/165 49/152/152 43/164/164
f 43/164/164 49/152/152 41/153/153
f 43/164/164 41/153/153 35/163/163
f 35/163/163 41/153/153 33/154/154
f 35/163/163 33/154/154 27/162/162
f 27/162/162 33/154/154 25/155/155
f 27/162/162 25/155/155 19/161/161
f 19/161/161 25/155/155 17/156/156
f 19/161/161 17/156/156 9/157/157
f 19/161/161 9/157/157 11/160/160
f 11/160/160 9/157/157 1/158/158
f 11/160/160 1/158/158 3/159/159
f 93/209/209 85/187/187 87/208/208
f 87/208/208 85/187/187 77/188/188
f 87/208/208 77/188/188 79/207/207
f 79/207/207 77/188/188 69/189/189
f 79/207/207 69/189/189 71/206/206
f 71/206/206 69/189/189 61/190/190
f 71/206/206 61/190/190 63/205/205
f 63/205/205 61/190/190 53/191/191
f 63/205/205 53/191/191 55/204/204
f 55/204/204 53/191/191 45/192/192
f 55/204/204 45/192/192 47/203/203
f 47/203/203 45/192/192 37/193/193
f 47/203/203 37/193/193 39/202/202
f 39/202/202 37/193/193 29/194/194
f 39/202/202 29/194/194 31/201/201
f 31/201/201 29/194/194 23/200/200
f 23/200/200 29/194/194 21/195/195
f 23/200/200 21/195/195 13/196/196
f 23/200/200 13/196/196 15/199/199
f 15/199/199 13/196/196 5/197/197
f 15/199/199 5/197/197 7/198/198
f 151/216/216 159/217/217 197/128/128
f 195/232/232 196/223/223 191/231/231
f 191/231/231 196/223/223 192/224/224
f 191/231/231 192/224/224 187/230/230
f 187/230/230 192/224/224 188/225/225
f 187/230/230 188/225/225 183/229/229
f 183/229/229 188/225/225 184/226/226
f 183/229/229 184/226/226 179/228/228
f 179/228/228 184/226/226 180/227/227
f 198/234/234 196/235/235 197/233/233
f 197/233/233 196/235/235 195/236/236
f 175/246/246 176/237/237 171/245/245
f 171/245/245 176/237/237 172/238/238
f 171/245/245 172/238/238 167/244/244
f 167/244/244 172/238/238 168/239/239
f 167/244/244 168/239/239 163/243/243
f 163/243/243 168/239/239 164/240/240
f 163/243/243 164/240/240 153/242/242
f 153/242/242 164/240/240 154/241/241
f 160/248/248 162/249/249 159/247/247
f 159/247/247 162/249/249 161/250/250
f 88/258/258 87/251/251 80/257/257
f 80/257/257 87/251/251 79/252/252
f 80/257/257 79/252/252 71/253/253
f 63/254/254 64/255/255 71/253/253
f 71/253/253 64/255/255 72/256/256
f 71/253/253 72/256/256 80/257/257
f 64/259/259 63/260/260 56/290/290
f 56/290/290 63/260/260 55/261/261
f 56/290/290 55/261/261 48/289/289
f 48/289/289 55/261/261 47/262/262
f 48/289/289 47/262/262 40/288/288
f 40/288/288 47/262/262 39/263/263
f 40/288/288 39/263/263 32/287/287
f 32/287/287 39/263/263 31/264/264
f 32/287/287 31/264/264 24/286/286
f 24/286/286 31/264/264 23/265/265
f 24/286/286 23/265/265 16/285/285
f 16/285/285 23/265/265 15/266/266
f 16/285/285 15/266/266 8/284/284
f 8/284/284 15/266/266 7/267/267
f 8/284/284 7/267/267 6/283/283
f 6/283/283 7/267/267 5/268/268
f 6/283/283 5/268/268 14/282/282
f 14/282/282 5/268/268 13/269/269
f 14/282/282 13/269/269 22/281/281
f 22/281/281 13/269/269 21/270/270
f 22/281/281 21/270/270 30/280/280
f 30/280/280 21/270/270 29/271/271
f 30/280/280 29/271/271 38/279/279
f 38/279/279 29/271/271 37/272/272
f 38/279/279 37/272/272 46/278/278
f 46/278/278 37/272/272 45/273/273
f 46/278/278 45/273/273 54/277/277
f 54/277/277 45/273/273 53/274/274
f 54/277/277 53/274/274 62/276/276
f 62/276/276 53/274/274 61/275/275
f 62/298/298 61/291/291 70/297/297
f 70/297/297 61/291/291 69/292/292
f 70/297/297 69/292/292 77/293/293
f 85/294/294 86/295/295 77/293/293
f 77/293/293 86/295/295 78/296/296
f 77/293/293 78/296/296 70/297/297
f 95/300/300 83/301/301 96/299/299
f 96/299/299 83/301/301 84/302/302
f 84/310/310 83/303/303 76/309/309
f 76/309/309 83/303/303 75/304/304
f 76/309/309 75/304/304 67/305/305
f 59/306/306 60/307/307 67/305/305
f 67/305/305 60/307/307 68/308/308
f 67/305/305 68/308/308 76/309/309
f 60/311/311 59/312/312 52/342/342
f 52/342/342 59/312/312 51/313/313
f 52/342/342 51/313/313 44/341/341
f 44/341/341 51/313/313 43/314/314
f 44/341/341 43/314/314 36/340/340
f 36/340/340 43/314/314 35/315/315
f 36/340/340 35/315/315 28/339/339
f 28/339/339 35/315/315 27/316/316
f 28/339/339 27/316/316 20/338/338
f 20/338/338 27/316/316 19/317/317
f 20/338/338 19/317/317 12/337/337
f 12/337/337 19/317/317 11/318/318
f 12/337/337 11/318/318 4/336/336
f 4/336/336 11/318/318 3/319/319
f 4/336/336 3/319/319 2/335/335
f 2/335/335 3/319/319 1/320/320
f 2/335/335 1/320/320 10/334/334
f 10/334/334 1/320/320 9/321/321
f 10/334/334 9/321/321 18/333/333
f 18/333/333 9/321/321 17/322/322
f 18/333/333 17/322/322 26/332/332
f 26/332/332 17/322/322 25/323/323
f 26/332/332 25/323/323 34/331/331
f 34/331/331 25/323/323 33/324/324
f 34/331/331 33/324/324 42/330/330
f 42/330/330 33/324/324 41/325/325
f 42/330/330 41/325/325 50/329/329
f 50/329/329 41/325/325 49/326/326
f 50/329/329 49/326/326 58/328/328
f 58/328/328 49/326/326 57/327/327
f 58/350/350 57/343/343 66/349/349
f 66/349/349 57/343/343 65/344/344
f 66/349/349 65/344/344 73/345/345
f 81/346/346 82/347/347 73/345/345
f 73/345/345 82/347/347 74/348/348
f 73/345/345 74/348/348 66/349/349
f 92/352/352 86/353/353 91/351/351
f 91/351/351 86/353/353 85/354/354
f 180/356/356 176/357/357 179/355/355
f 179/355/355 176/357/357 175/358/358
f 90/360/360 82/361/361 89/359/359
f 89/359/359 82/361/361 81/362/362
f 93/364/364 87/365/365 94/363/363
f 94/363/363 87/365/365 88/366/366
f 160/384/384 159/367/367 152/383/383
f 152/383/383 159/367/367 151/368/368
f 152/383/383 151/368/368 144/382/382
f 144/382/382 151/368/368 143/369/369
f 144/382/382 143/369/369 136/381/381
f 136/381/381 143/369/369 135/370/370
f 136/381/381 135/370/370 128/380/380
f 128/380/380 135/370/370 127/371/371
f 128/380/380 127/371/371 120/379/379
f 120/379/379 127/371/371 119/372/372
f 120/379/379 119/372/372 112/378/378
f 112/378/378 119/372/372 111/373/373
f 112/378/378 111/373/373 104/377/377
f 104/377/377 111/373/373 103/374/374
f 104/377/377 103/374/374 94/376/376
f 94/376/376 103/374/374 93/375/375
f 158/402/402 157/385/385 146/401/401
f 146/401/401 157/385/385 145/386/386
f 146/401/401 145/386/386 137/387/387
f 146/401/401 137/387/387 138/400/400
f 138/400/400 137/387/387 129/388/388
f 138/400/400 129/388/388 130/399/399
f 130/399/399 129/388/388 121/389/389
f 130/399/399 121/389/389 122/398/398
f 122/398/398 121/389/389 113/390/390
f 122/398/398 113/390/390 114/397/397
f 114/397/397 113/390/390 105/391/391
f 114/397/397 105/391/391 106/396/396
f 106/396/396 105/391/391 97/392/392
f 106/396/396 97/392/392 98/395/395
f 98/395/395 97/392/392 96/394/394
f 96/394/394 97/392/392 95/393/393
f 90/420/420 89/403/403 100/419/419
f 100/419/419 89/403/403 99/404/404
f 100/419/419 99/404/404 108/418/418
f 108/418/418 99/404/404 107/405/405
f 108/418/418 107/405/405 116/417/417
f 116/417/417 107/405/405 115/406/406
f 116/417/417 115/406/406 124/416/416
f 124/416/416 115/406/406 123/407/407
f 124/416/416 123/407/407 132/415/415
f 132/415/415 123/407/407 131/408/408
f 132/415/415 131/408/408 140/414/414
f 140/414/414 131/408/408 139/409/409
f 140/414/414 139/409/409 148/413/413
f 148/413/413 139/409/409 147/410/410
f 148/413/413 147/410/410 156/412/412
f 156/412/412 147/410/410 155/411/411
f 155/422/422 153/423/423 156/421/421
f 156/421/421 153/423/423 154/424/424
f 92/442/442 91/425/425 102/441/441
f 102/441/441 91/425/425 101/426/426
f 102/441/441 101/426/426 110/440/440
f 110/440/440 101/426/426 109/427/427
f 110/440/440 109/427/427 118/439/439
f 118/439/439 109/427/427 117/428/428
f 118/439/439 117/428/428 126/438/438
f 126/438/438 117/428/428 125/429/429
f 126/438/438 125/429/429 134/437/437
f 134/437/437 125/429/429 133/430/430
f 134/437/437 133/430/430 142/436/436
f 142/436/436 133/430/430 141/431/431
f 142/436/436 141/431/431 150/435/435
f 150/435/435 141/431/431 149/432/432
f 150/435/435 149/432/432 158/434/434
f 158/434/434 149/432/432 157/433/433
# 198 vertices
# 442 texture params
# 442 normals
# 392 facets

# 1 groups
