%TF.GenerationSoftware,KiCad,Pcbnew,9.0.3*%
%TF.CreationDate,2026-03-20T14:52:29+01:00*%
%TF.ProjectId,T2601_APIArduinoExtentionBoard,54323630-315f-4415-9049-41726475696e,rev?*%
%TF.SameCoordinates,Original*%
%TF.FileFunction,Soldermask,Top*%
%TF.FilePolarity,Negative*%
%FSLAX46Y46*%
G04 Gerber Fmt 4.6, Leading zero omitted, Abs format (unit mm)*
G04 Created by KiCad (PCBNEW 9.0.3) date 2026-03-20 14:52:29*
%MOMM*%
%LPD*%
G01*
G04 APERTURE LIST*
G04 Aperture macros list*
%AMRoundRect*
0 Rectangle with rounded corners*
0 $1 Rounding radius*
0 $2 $3 $4 $5 $6 $7 $8 $9 X,Y pos of 4 corners*
0 Add a 4 corners polygon primitive as box body*
4,1,4,$2,$3,$4,$5,$6,$7,$8,$9,$2,$3,0*
0 Add four circle primitives for the rounded corners*
1,1,$1+$1,$2,$3*
1,1,$1+$1,$4,$5*
1,1,$1+$1,$6,$7*
1,1,$1+$1,$8,$9*
0 Add four rect primitives between the rounded corners*
20,1,$1+$1,$2,$3,$4,$5,0*
20,1,$1+$1,$4,$5,$6,$7,0*
20,1,$1+$1,$6,$7,$8,$9,0*
20,1,$1+$1,$8,$9,$2,$3,0*%
%AMHorizOval*
0 Thick line with rounded ends*
0 $1 width*
0 $2 $3 position (X,Y) of the first rounded end (center of the circle)*
0 $4 $5 position (X,Y) of the second rounded end (center of the circle)*
0 Add line between two ends*
20,1,$1,$2,$3,$4,$5,0*
0 Add two circle primitives to create the rounded ends*
1,1,$1,$2,$3*
1,1,$1,$4,$5*%
%AMRotRect*
0 Rectangle, with rotation*
0 The origin of the aperture is its center*
0 $1 length*
0 $2 width*
0 $3 Rotation angle, in degrees counterclockwise*
0 Add horizontal line*
21,1,$1,$2,0,0,$3*%
G04 Aperture macros list end*
%ADD10RoundRect,0.159000X0.159000X0.189000X-0.159000X0.189000X-0.159000X-0.189000X0.159000X-0.189000X0*%
%ADD11RoundRect,0.219000X0.219000X0.294000X-0.219000X0.294000X-0.219000X-0.294000X0.219000X-0.294000X0*%
%ADD12RoundRect,0.250000X-0.600000X-0.600000X0.600000X-0.600000X0.600000X0.600000X-0.600000X0.600000X0*%
%ADD13C,1.700000*%
%ADD14RoundRect,0.261500X-0.261500X-0.476500X0.261500X-0.476500X0.261500X0.476500X-0.261500X0.476500X0*%
%ADD15RoundRect,0.159000X0.189000X-0.159000X0.189000X0.159000X-0.189000X0.159000X-0.189000X-0.159000X0*%
%ADD16RoundRect,0.159000X-0.189000X0.159000X-0.189000X-0.159000X0.189000X-0.159000X0.189000X0.159000X0*%
%ADD17RoundRect,0.261500X0.261500X0.476500X-0.261500X0.476500X-0.261500X-0.476500X0.261500X-0.476500X0*%
%ADD18RoundRect,0.261500X-0.476500X0.261500X-0.476500X-0.261500X0.476500X-0.261500X0.476500X0.261500X0*%
%ADD19RoundRect,0.250001X-0.799999X-0.799999X0.799999X-0.799999X0.799999X0.799999X-0.799999X0.799999X0*%
%ADD20C,2.100000*%
%ADD21RoundRect,0.250000X-0.750000X-0.750000X0.750000X-0.750000X0.750000X0.750000X-0.750000X0.750000X0*%
%ADD22C,2.000000*%
%ADD23HorizOval,0.450000X-0.424264X0.424264X0.424264X-0.424264X0*%
%ADD24HorizOval,0.450000X-0.424264X-0.424264X0.424264X0.424264X0*%
%ADD25R,1.700000X1.700000*%
%ADD26RoundRect,0.250000X-0.725000X0.600000X-0.725000X-0.600000X0.725000X-0.600000X0.725000X0.600000X0*%
%ADD27O,1.950000X1.700000*%
%ADD28RoundRect,0.260556X1.027444X0.677444X-1.027444X0.677444X-1.027444X-0.677444X1.027444X-0.677444X0*%
%ADD29RotRect,1.400000X1.200000X225.000000*%
%ADD30RoundRect,0.159000X-0.021213X0.246073X-0.246073X0.021213X0.021213X-0.246073X0.246073X-0.021213X0*%
%ADD31RoundRect,0.159000X-0.159000X-0.189000X0.159000X-0.189000X0.159000X0.189000X-0.159000X0.189000X0*%
%ADD32RoundRect,0.219000X-0.219000X-0.294000X0.219000X-0.294000X0.219000X0.294000X-0.219000X0.294000X0*%
%ADD33RoundRect,0.250000X-0.600000X-0.250000X0.600000X-0.250000X0.600000X0.250000X-0.600000X0.250000X0*%
%ADD34RoundRect,0.219000X-0.294000X0.219000X-0.294000X-0.219000X0.294000X-0.219000X0.294000X0.219000X0*%
%ADD35RoundRect,0.159000X-0.246073X-0.021213X-0.021213X-0.246073X0.246073X0.021213X0.021213X0.246073X0*%
%ADD36RoundRect,0.250001X1.149999X1.149999X-1.149999X1.149999X-1.149999X-1.149999X1.149999X-1.149999X0*%
%ADD37C,2.800000*%
%ADD38RoundRect,0.159000X0.246073X0.021213X0.021213X0.246073X-0.246073X-0.021213X-0.021213X-0.246073X0*%
%ADD39RoundRect,0.159000X0.021213X-0.246073X0.246073X-0.021213X-0.021213X0.246073X-0.246073X0.021213X0*%
G04 APERTURE END LIST*
D10*
%TO.C,R17*%
X176513998Y-80695800D03*
X175514000Y-80695800D03*
%TD*%
D11*
%TO.C,R5*%
X162719601Y-51358800D03*
X161079599Y-51358800D03*
%TD*%
D12*
%TO.C,J15*%
X179019200Y-38658800D03*
D13*
X181559200Y-38658800D03*
X179019200Y-41198800D03*
X181559200Y-41198800D03*
X179019200Y-43738800D03*
X181559200Y-43738800D03*
X179019200Y-46278800D03*
X181559200Y-46278800D03*
X179019200Y-48818800D03*
X181559200Y-48818800D03*
X179019200Y-51358800D03*
X181559200Y-51358800D03*
X179019200Y-53898800D03*
X181559200Y-53898800D03*
X179019200Y-56438800D03*
X181559200Y-56438800D03*
%TD*%
D14*
%TO.C,D9*%
X149478800Y-68478400D03*
X151358800Y-68478400D03*
%TD*%
D15*
%TO.C,R8*%
X148082000Y-68978399D03*
X148082000Y-67978401D03*
%TD*%
D16*
%TO.C,R9*%
X148082000Y-65895601D03*
X148082000Y-66895599D03*
%TD*%
D17*
%TO.C,D8*%
X140345998Y-59866400D03*
X138466000Y-59866400D03*
%TD*%
D18*
%TO.C,D21*%
X165354000Y-77520601D03*
X165354000Y-79400599D03*
%TD*%
D19*
%TO.C,J5*%
X129641600Y-114477800D03*
D20*
X132181600Y-114477800D03*
X134721600Y-114477800D03*
X137261600Y-114477800D03*
X139801600Y-114477800D03*
X142341600Y-114477800D03*
X144881600Y-114477800D03*
X147421600Y-114477800D03*
%TD*%
D21*
%TO.C,J14*%
X158216600Y-114350800D03*
D22*
X160756600Y-114350800D03*
%TD*%
D10*
%TO.C,R13*%
X151121999Y-80695800D03*
X150122001Y-80695800D03*
%TD*%
D18*
%TO.C,D25*%
X180594000Y-77520601D03*
X180594000Y-79400599D03*
%TD*%
%TO.C,D5*%
X135026400Y-77469801D03*
X135026400Y-79349799D03*
%TD*%
D10*
%TO.C,R6*%
X146041999Y-80695800D03*
X145042001Y-80695800D03*
%TD*%
D18*
%TO.C,D13*%
X157124400Y-47277202D03*
X157124400Y-49157200D03*
%TD*%
D10*
%TO.C,R4*%
X138371199Y-80695800D03*
X137371201Y-80695800D03*
%TD*%
%TO.C,R18*%
X173981999Y-80746600D03*
X172982001Y-80746600D03*
%TD*%
%TO.C,R14*%
X153704798Y-80746600D03*
X152704800Y-80746600D03*
%TD*%
D12*
%TO.C,J9*%
X130556000Y-38608000D03*
D13*
X133096000Y-38608000D03*
X130556000Y-41148000D03*
X133096000Y-41148000D03*
X130556000Y-43688000D03*
X133096000Y-43688000D03*
X130556000Y-46228000D03*
X133096000Y-46228000D03*
X130556000Y-48768000D03*
X133096000Y-48768000D03*
X130556000Y-51308000D03*
X133096000Y-51308000D03*
X130556000Y-53848000D03*
X133096000Y-53848000D03*
X130556000Y-56388000D03*
X133096000Y-56388000D03*
%TD*%
D23*
%TO.C,U1*%
X154490242Y-52022479D03*
X153924557Y-52588165D03*
X153358872Y-53153850D03*
X152793186Y-53719536D03*
X152227501Y-54285221D03*
X151661815Y-54850907D03*
X151096130Y-55416592D03*
X150530444Y-55982277D03*
D24*
X150523373Y-58209664D03*
X151089059Y-58775349D03*
X151654744Y-59341035D03*
X152220430Y-59906720D03*
X152786115Y-60472405D03*
X153351800Y-61038091D03*
X153917486Y-61603776D03*
X154483171Y-62169462D03*
D23*
X156710558Y-62162391D03*
X157276243Y-61596705D03*
X157841928Y-61031020D03*
X158407614Y-60465334D03*
X158973299Y-59899649D03*
X159538985Y-59333963D03*
X160104670Y-58768278D03*
X160670356Y-58202593D03*
D24*
X160677427Y-55975206D03*
X160111741Y-55409521D03*
X159546056Y-54843835D03*
X158980370Y-54278150D03*
X158414685Y-53712465D03*
X157849000Y-53146779D03*
X157283314Y-52581094D03*
X156717629Y-52015408D03*
%TD*%
D18*
%TO.C,D20*%
X162915600Y-77520601D03*
X162915600Y-79400599D03*
%TD*%
D25*
%TO.C,J2*%
X153670000Y-108458000D03*
D13*
X151130000Y-108458000D03*
X148590001Y-108458000D03*
X146050000Y-108458000D03*
X143510000Y-108458000D03*
X140970000Y-108458000D03*
X138430000Y-108458000D03*
X135889999Y-108458000D03*
X133350000Y-108458000D03*
X130810000Y-108458000D03*
%TD*%
D18*
%TO.C,D15*%
X145034000Y-77520601D03*
X145034000Y-79400599D03*
%TD*%
%TO.C,D4*%
X132689600Y-77469801D03*
X132689600Y-79349799D03*
%TD*%
D25*
%TO.C,J7*%
X154259600Y-71003400D03*
D13*
X156799600Y-71003400D03*
X154259600Y-68463400D03*
X156799600Y-68463400D03*
X154259600Y-65923401D03*
X156799600Y-65923400D03*
%TD*%
D25*
%TO.C,J3*%
X181610000Y-108458000D03*
D13*
X179070000Y-108458000D03*
X176530001Y-108458000D03*
X173990000Y-108458000D03*
X171450000Y-108458000D03*
X168910000Y-108458000D03*
X166370000Y-108458000D03*
X163829999Y-108458000D03*
X161290000Y-108458000D03*
X158750000Y-108458000D03*
%TD*%
D26*
%TO.C,J13*%
X182400000Y-65200000D03*
D27*
X182400000Y-67700000D03*
X182400000Y-70200000D03*
X182400000Y-72700000D03*
%TD*%
D18*
%TO.C,D16*%
X147574000Y-77520601D03*
X147574000Y-79400599D03*
%TD*%
%TO.C,D11*%
X156850000Y-43020001D03*
X156850000Y-44899999D03*
%TD*%
D10*
%TO.C,R20*%
X163872799Y-80695800D03*
X162872801Y-80695800D03*
%TD*%
D18*
%TO.C,D17*%
X150114000Y-77520601D03*
X150114000Y-79400599D03*
%TD*%
D10*
%TO.C,R7*%
X148581999Y-80695800D03*
X147582001Y-80695800D03*
%TD*%
%TO.C,R15*%
X181610000Y-80695800D03*
X180610002Y-80695800D03*
%TD*%
D18*
%TO.C,D14*%
X137363200Y-77469801D03*
X137363200Y-79349799D03*
%TD*%
D25*
%TO.C,J8*%
X159400400Y-74600200D03*
D13*
X156860400Y-74600200D03*
X154320401Y-74600200D03*
X151780400Y-74600200D03*
%TD*%
D28*
%TO.C,D6*%
X165862001Y-48641000D03*
X161861999Y-48641000D03*
%TD*%
D29*
%TO.C,X1*%
X146761200Y-55016400D03*
X145205565Y-56572035D03*
X146407646Y-57774116D03*
X147963281Y-56218481D03*
%TD*%
D10*
%TO.C,R11*%
X159569199Y-41582399D03*
X158569201Y-41582399D03*
%TD*%
D25*
%TO.C,J1*%
X181610000Y-83058000D03*
D13*
X179070000Y-83058000D03*
X176530001Y-83058000D03*
X173990000Y-83058000D03*
X171450000Y-83058000D03*
X168910000Y-83058000D03*
X166370000Y-83058000D03*
X163829999Y-83058000D03*
X161290000Y-83058000D03*
X158750000Y-83058000D03*
%TD*%
D30*
%TO.C,C1*%
X147980400Y-58369200D03*
X147273294Y-59076306D03*
%TD*%
D21*
%TO.C,J12*%
X151480600Y-114322300D03*
D22*
X154020600Y-114322300D03*
%TD*%
D10*
%TO.C,R16*%
X179061999Y-80695800D03*
X178062001Y-80695800D03*
%TD*%
D31*
%TO.C,R10*%
X156350000Y-41572400D03*
X157350000Y-41572400D03*
%TD*%
D32*
%TO.C,R24*%
X135360000Y-63000000D03*
X137000000Y-63000000D03*
%TD*%
D10*
%TO.C,R21*%
X161324798Y-80695800D03*
X160324800Y-80695800D03*
%TD*%
D18*
%TO.C,D3*%
X130251200Y-77469801D03*
X130251200Y-79349799D03*
%TD*%
D33*
%TO.C,S1*%
X161700000Y-37550000D03*
X168300000Y-37550000D03*
X161700000Y-41250000D03*
X168300000Y-41250000D03*
%TD*%
D14*
%TO.C,D10*%
X149478800Y-66344800D03*
X151358800Y-66344800D03*
%TD*%
D10*
%TO.C,R1*%
X131259199Y-80645000D03*
X130259201Y-80645000D03*
%TD*%
D18*
%TO.C,D22*%
X172974000Y-77495002D03*
X172974000Y-79375000D03*
%TD*%
%TO.C,D2*%
X157734000Y-77520601D03*
X157734000Y-79400599D03*
%TD*%
%TO.C,D18*%
X152704800Y-77520601D03*
X152704800Y-79400599D03*
%TD*%
D10*
%TO.C,R22*%
X158741999Y-80695800D03*
X157742001Y-80695800D03*
%TD*%
D32*
%TO.C,R23*%
X135360000Y-64422400D03*
X137000000Y-64422400D03*
%TD*%
D19*
%TO.C,J6*%
X164820600Y-114477800D03*
D20*
X167360600Y-114477800D03*
X169900599Y-114477800D03*
X172440600Y-114477800D03*
X174980600Y-114477800D03*
X177520600Y-114477800D03*
X180060600Y-114477800D03*
X182600601Y-114477800D03*
%TD*%
D10*
%TO.C,R3*%
X136034399Y-80695800D03*
X135034401Y-80695800D03*
%TD*%
D18*
%TO.C,D24*%
X178054000Y-77520601D03*
X178054000Y-79400599D03*
%TD*%
%TO.C,D19*%
X160324800Y-77520601D03*
X160324800Y-79400599D03*
%TD*%
D25*
%TO.C,J4*%
X153670000Y-83058000D03*
D13*
X151130000Y-83058000D03*
X148590001Y-83058000D03*
X146050000Y-83058000D03*
X143510000Y-83058000D03*
X140970000Y-83058000D03*
X138430000Y-83058000D03*
X135889999Y-83058000D03*
X133350000Y-83058000D03*
X130810000Y-83058000D03*
%TD*%
D34*
%TO.C,R25*%
X164134800Y-51351599D03*
X164134800Y-52991601D03*
%TD*%
D10*
%TO.C,R2*%
X133689598Y-80645000D03*
X132689600Y-80645000D03*
%TD*%
D18*
%TO.C,D23*%
X175514000Y-77520601D03*
X175514000Y-79400599D03*
%TD*%
D35*
%TO.C,C4*%
X159439894Y-61522894D03*
X160147000Y-62230000D03*
%TD*%
D18*
%TO.C,D12*%
X159120000Y-43030000D03*
X159120000Y-44909998D03*
%TD*%
D36*
%TO.C,D1*%
X173075600Y-70600000D03*
D37*
X160375600Y-70600000D03*
%TD*%
D10*
%TO.C,R19*%
X166361999Y-80695800D03*
X165362001Y-80695800D03*
%TD*%
D38*
%TO.C,C2*%
X149146753Y-54861953D03*
X148439647Y-54154847D03*
%TD*%
D39*
%TO.C,C3*%
X150672800Y-51968400D03*
X151379906Y-51261294D03*
%TD*%
D14*
%TO.C,D26*%
X165988800Y-51968400D03*
X167868800Y-51968400D03*
%TD*%
D26*
%TO.C,J11*%
X130759200Y-65125600D03*
D27*
X130759200Y-67625600D03*
X130759200Y-70125600D03*
X130759200Y-72625600D03*
%TD*%
D17*
%TO.C,D7*%
X140371199Y-62000000D03*
X138491201Y-62000000D03*
%TD*%
D16*
%TO.C,R12*%
X155549600Y-47107602D03*
X155549600Y-48107600D03*
%TD*%
M02*
