%TF.GenerationSoftware,KiCad,Pcbnew,9.0.3*%
%TF.CreationDate,2026-03-08T17:39:20+01:00*%
%TF.ProjectId,T2601_APIArduinoExtentionBoard,54323630-315f-4415-9049-41726475696e,rev?*%
%TF.SameCoordinates,Original*%
%TF.FileFunction,Legend,Top*%
%TF.FilePolarity,Positive*%
%FSLAX46Y46*%
G04 Gerber Fmt 4.6, Leading zero omitted, Abs format (unit mm)*
G04 Created by KiCad (PCBNEW 9.0.3) date 2026-03-08 17:39:20*
%MOMM*%
%LPD*%
G01*
G04 APERTURE LIST*
G04 Aperture macros list*
%AMRoundRect*
0 Rectangle with rounded corners*
0 $1 Rounding radius*
0 $2 $3 $4 $5 $6 $7 $8 $9 X,Y pos of 4 corners*
0 Add a 4 corners polygon primitive as box body*
4,1,4,$2,$3,$4,$5,$6,$7,$8,$9,$2,$3,0*
0 Add four circle primitives for the rounded corners*
1,1,$1+$1,$2,$3*
1,1,$1+$1,$4,$5*
1,1,$1+$1,$6,$7*
1,1,$1+$1,$8,$9*
0 Add four rect primitives between the rounded corners*
20,1,$1+$1,$2,$3,$4,$5,0*
20,1,$1+$1,$4,$5,$6,$7,0*
20,1,$1+$1,$6,$7,$8,$9,0*
20,1,$1+$1,$8,$9,$2,$3,0*%
%AMHorizOval*
0 Thick line with rounded ends*
0 $1 width*
0 $2 $3 position (X,Y) of the first rounded end (center of the circle)*
0 $4 $5 position (X,Y) of the second rounded end (center of the circle)*
0 Add line between two ends*
20,1,$1,$2,$3,$4,$5,0*
0 Add two circle primitives to create the rounded ends*
1,1,$1,$2,$3*
1,1,$1,$4,$5*%
%AMRotRect*
0 Rectangle, with rotation*
0 The origin of the aperture is its center*
0 $1 length*
0 $2 width*
0 $3 Rotation angle, in degrees counterclockwise*
0 Add horizontal line*
21,1,$1,$2,0,0,$3*%
G04 Aperture macros list end*
%ADD10C,0.100000*%
%ADD11C,0.150000*%
%ADD12C,0.120000*%
%ADD13C,0.250000*%
%ADD14C,0.300000*%
%ADD15C,0.400000*%
%ADD16RoundRect,0.159000X0.159000X0.189000X-0.159000X0.189000X-0.159000X-0.189000X0.159000X-0.189000X0*%
%ADD17RoundRect,0.219000X0.219000X0.294000X-0.219000X0.294000X-0.219000X-0.294000X0.219000X-0.294000X0*%
%ADD18RoundRect,0.261500X-0.261500X-0.476500X0.261500X-0.476500X0.261500X0.476500X-0.261500X0.476500X0*%
%ADD19RoundRect,0.159000X0.189000X-0.159000X0.189000X0.159000X-0.189000X0.159000X-0.189000X-0.159000X0*%
%ADD20RoundRect,0.159000X-0.189000X0.159000X-0.189000X-0.159000X0.189000X-0.159000X0.189000X0.159000X0*%
%ADD21RoundRect,0.261500X0.261500X0.476500X-0.261500X0.476500X-0.261500X-0.476500X0.261500X-0.476500X0*%
%ADD22RoundRect,0.261500X-0.476500X0.261500X-0.476500X-0.261500X0.476500X-0.261500X0.476500X0.261500X0*%
%ADD23RoundRect,0.250001X-0.799999X-0.799999X0.799999X-0.799999X0.799999X0.799999X-0.799999X0.799999X0*%
%ADD24C,2.100000*%
%ADD25RoundRect,0.250000X-0.750000X-0.750000X0.750000X-0.750000X0.750000X0.750000X-0.750000X0.750000X0*%
%ADD26C,2.000000*%
%ADD27HorizOval,0.450000X-0.424264X0.424264X0.424264X-0.424264X0*%
%ADD28HorizOval,0.450000X-0.424264X-0.424264X0.424264X0.424264X0*%
%ADD29R,1.700000X1.700000*%
%ADD30C,1.700000*%
%ADD31RoundRect,0.250000X-0.600000X-0.600000X0.600000X-0.600000X0.600000X0.600000X-0.600000X0.600000X0*%
%ADD32RoundRect,0.250000X0.725000X-0.600000X0.725000X0.600000X-0.725000X0.600000X-0.725000X-0.600000X0*%
%ADD33O,1.950000X1.700000*%
%ADD34RotRect,1.400000X1.200000X225.000000*%
%ADD35RoundRect,0.159000X-0.021213X0.246073X-0.246073X0.021213X0.021213X-0.246073X0.246073X-0.021213X0*%
%ADD36RoundRect,0.159000X-0.159000X-0.189000X0.159000X-0.189000X0.159000X0.189000X-0.159000X0.189000X0*%
%ADD37RoundRect,0.219000X-0.219000X-0.294000X0.219000X-0.294000X0.219000X0.294000X-0.219000X0.294000X0*%
%ADD38RoundRect,0.250000X-0.600000X-0.250000X0.600000X-0.250000X0.600000X0.250000X-0.600000X0.250000X0*%
%ADD39RoundRect,0.260556X-1.027444X-0.677444X1.027444X-0.677444X1.027444X0.677444X-1.027444X0.677444X0*%
%ADD40RoundRect,0.250001X1.149999X1.149999X-1.149999X1.149999X-1.149999X-1.149999X1.149999X-1.149999X0*%
%ADD41C,2.800000*%
%ADD42RoundRect,0.159000X0.246073X0.021213X0.021213X0.246073X-0.246073X-0.021213X-0.021213X-0.246073X0*%
%ADD43RoundRect,0.159000X0.021213X-0.246073X0.246073X-0.021213X-0.021213X0.246073X-0.246073X0.021213X0*%
%ADD44RoundRect,0.250000X-0.725000X0.600000X-0.725000X-0.600000X0.725000X-0.600000X0.725000X0.600000X0*%
G04 APERTURE END LIST*
D10*
X157420000Y-84582000D02*
X182970000Y-84582000D01*
X182970000Y-112582000D01*
X157420000Y-112582000D01*
X157420000Y-84582000D01*
D11*
X138223666Y-118784019D02*
X138223666Y-119498304D01*
X138223666Y-119498304D02*
X138176047Y-119641161D01*
X138176047Y-119641161D02*
X138080809Y-119736400D01*
X138080809Y-119736400D02*
X137937952Y-119784019D01*
X137937952Y-119784019D02*
X137842714Y-119784019D01*
X139176047Y-118784019D02*
X138699857Y-118784019D01*
X138699857Y-118784019D02*
X138652238Y-119260209D01*
X138652238Y-119260209D02*
X138699857Y-119212590D01*
X138699857Y-119212590D02*
X138795095Y-119164971D01*
X138795095Y-119164971D02*
X139033190Y-119164971D01*
X139033190Y-119164971D02*
X139128428Y-119212590D01*
X139128428Y-119212590D02*
X139176047Y-119260209D01*
X139176047Y-119260209D02*
X139223666Y-119355447D01*
X139223666Y-119355447D02*
X139223666Y-119593542D01*
X139223666Y-119593542D02*
X139176047Y-119688780D01*
X139176047Y-119688780D02*
X139128428Y-119736400D01*
X139128428Y-119736400D02*
X139033190Y-119784019D01*
X139033190Y-119784019D02*
X138795095Y-119784019D01*
X138795095Y-119784019D02*
X138699857Y-119736400D01*
X138699857Y-119736400D02*
X138652238Y-119688780D01*
X158702476Y-114212019D02*
X158702476Y-114926304D01*
X158702476Y-114926304D02*
X158654857Y-115069161D01*
X158654857Y-115069161D02*
X158559619Y-115164400D01*
X158559619Y-115164400D02*
X158416762Y-115212019D01*
X158416762Y-115212019D02*
X158321524Y-115212019D01*
X159702476Y-115212019D02*
X159131048Y-115212019D01*
X159416762Y-115212019D02*
X159416762Y-114212019D01*
X159416762Y-114212019D02*
X159321524Y-114354876D01*
X159321524Y-114354876D02*
X159226286Y-114450114D01*
X159226286Y-114450114D02*
X159131048Y-114497733D01*
X160559619Y-114545352D02*
X160559619Y-115212019D01*
X160321524Y-114164400D02*
X160083429Y-114878685D01*
X160083429Y-114878685D02*
X160702476Y-114878685D01*
X160594634Y-63164165D02*
X161167054Y-63736585D01*
X161167054Y-63736585D02*
X161268069Y-63770257D01*
X161268069Y-63770257D02*
X161335413Y-63770257D01*
X161335413Y-63770257D02*
X161436428Y-63736585D01*
X161436428Y-63736585D02*
X161571115Y-63601898D01*
X161571115Y-63601898D02*
X161604787Y-63500883D01*
X161604787Y-63500883D02*
X161604787Y-63433539D01*
X161604787Y-63433539D02*
X161571115Y-63332524D01*
X161571115Y-63332524D02*
X160998695Y-62760104D01*
X162412909Y-62760104D02*
X162008848Y-63164165D01*
X162210878Y-62962135D02*
X161503772Y-62255028D01*
X161503772Y-62255028D02*
X161537443Y-62423387D01*
X161537443Y-62423387D02*
X161537443Y-62558074D01*
X161537443Y-62558074D02*
X161503772Y-62659089D01*
X155894819Y-111585333D02*
X156609104Y-111585333D01*
X156609104Y-111585333D02*
X156751961Y-111632952D01*
X156751961Y-111632952D02*
X156847200Y-111728190D01*
X156847200Y-111728190D02*
X156894819Y-111871047D01*
X156894819Y-111871047D02*
X156894819Y-111966285D01*
X155990057Y-111156761D02*
X155942438Y-111109142D01*
X155942438Y-111109142D02*
X155894819Y-111013904D01*
X155894819Y-111013904D02*
X155894819Y-110775809D01*
X155894819Y-110775809D02*
X155942438Y-110680571D01*
X155942438Y-110680571D02*
X155990057Y-110632952D01*
X155990057Y-110632952D02*
X156085295Y-110585333D01*
X156085295Y-110585333D02*
X156180533Y-110585333D01*
X156180533Y-110585333D02*
X156323390Y-110632952D01*
X156323390Y-110632952D02*
X156894819Y-111204380D01*
X156894819Y-111204380D02*
X156894819Y-110585333D01*
X159026266Y-67933219D02*
X159026266Y-68647504D01*
X159026266Y-68647504D02*
X158978647Y-68790361D01*
X158978647Y-68790361D02*
X158883409Y-68885600D01*
X158883409Y-68885600D02*
X158740552Y-68933219D01*
X158740552Y-68933219D02*
X158645314Y-68933219D01*
X159407219Y-67933219D02*
X160073885Y-67933219D01*
X160073885Y-67933219D02*
X159645314Y-68933219D01*
X172875676Y-45682819D02*
X172875676Y-46397104D01*
X172875676Y-46397104D02*
X172828057Y-46539961D01*
X172828057Y-46539961D02*
X172732819Y-46635200D01*
X172732819Y-46635200D02*
X172589962Y-46682819D01*
X172589962Y-46682819D02*
X172494724Y-46682819D01*
X173875676Y-46682819D02*
X173304248Y-46682819D01*
X173589962Y-46682819D02*
X173589962Y-45682819D01*
X173589962Y-45682819D02*
X173494724Y-45825676D01*
X173494724Y-45825676D02*
X173399486Y-45920914D01*
X173399486Y-45920914D02*
X173304248Y-45968533D01*
X174494724Y-45682819D02*
X174589962Y-45682819D01*
X174589962Y-45682819D02*
X174685200Y-45730438D01*
X174685200Y-45730438D02*
X174732819Y-45778057D01*
X174732819Y-45778057D02*
X174780438Y-45873295D01*
X174780438Y-45873295D02*
X174828057Y-46063771D01*
X174828057Y-46063771D02*
X174828057Y-46301866D01*
X174828057Y-46301866D02*
X174780438Y-46492342D01*
X174780438Y-46492342D02*
X174732819Y-46587580D01*
X174732819Y-46587580D02*
X174685200Y-46635200D01*
X174685200Y-46635200D02*
X174589962Y-46682819D01*
X174589962Y-46682819D02*
X174494724Y-46682819D01*
X174494724Y-46682819D02*
X174399486Y-46635200D01*
X174399486Y-46635200D02*
X174351867Y-46587580D01*
X174351867Y-46587580D02*
X174304248Y-46492342D01*
X174304248Y-46492342D02*
X174256629Y-46301866D01*
X174256629Y-46301866D02*
X174256629Y-46063771D01*
X174256629Y-46063771D02*
X174304248Y-45873295D01*
X174304248Y-45873295D02*
X174351867Y-45778057D01*
X174351867Y-45778057D02*
X174399486Y-45730438D01*
X174399486Y-45730438D02*
X174494724Y-45682819D01*
X183834819Y-111585333D02*
X184549104Y-111585333D01*
X184549104Y-111585333D02*
X184691961Y-111632952D01*
X184691961Y-111632952D02*
X184787200Y-111728190D01*
X184787200Y-111728190D02*
X184834819Y-111871047D01*
X184834819Y-111871047D02*
X184834819Y-111966285D01*
X183834819Y-111204380D02*
X183834819Y-110585333D01*
X183834819Y-110585333D02*
X184215771Y-110918666D01*
X184215771Y-110918666D02*
X184215771Y-110775809D01*
X184215771Y-110775809D02*
X184263390Y-110680571D01*
X184263390Y-110680571D02*
X184311009Y-110632952D01*
X184311009Y-110632952D02*
X184406247Y-110585333D01*
X184406247Y-110585333D02*
X184644342Y-110585333D01*
X184644342Y-110585333D02*
X184739580Y-110632952D01*
X184739580Y-110632952D02*
X184787200Y-110680571D01*
X184787200Y-110680571D02*
X184834819Y-110775809D01*
X184834819Y-110775809D02*
X184834819Y-111061523D01*
X184834819Y-111061523D02*
X184787200Y-111156761D01*
X184787200Y-111156761D02*
X184739580Y-111204380D01*
X175161676Y-67476019D02*
X175161676Y-68190304D01*
X175161676Y-68190304D02*
X175114057Y-68333161D01*
X175114057Y-68333161D02*
X175018819Y-68428400D01*
X175018819Y-68428400D02*
X174875962Y-68476019D01*
X174875962Y-68476019D02*
X174780724Y-68476019D01*
X176161676Y-68476019D02*
X175590248Y-68476019D01*
X175875962Y-68476019D02*
X175875962Y-67476019D01*
X175875962Y-67476019D02*
X175780724Y-67618876D01*
X175780724Y-67618876D02*
X175685486Y-67714114D01*
X175685486Y-67714114D02*
X175590248Y-67761733D01*
X176495010Y-67476019D02*
X177114057Y-67476019D01*
X177114057Y-67476019D02*
X176780724Y-67856971D01*
X176780724Y-67856971D02*
X176923581Y-67856971D01*
X176923581Y-67856971D02*
X177018819Y-67904590D01*
X177018819Y-67904590D02*
X177066438Y-67952209D01*
X177066438Y-67952209D02*
X177114057Y-68047447D01*
X177114057Y-68047447D02*
X177114057Y-68285542D01*
X177114057Y-68285542D02*
X177066438Y-68380780D01*
X177066438Y-68380780D02*
X177018819Y-68428400D01*
X177018819Y-68428400D02*
X176923581Y-68476019D01*
X176923581Y-68476019D02*
X176637867Y-68476019D01*
X176637867Y-68476019D02*
X176542629Y-68428400D01*
X176542629Y-68428400D02*
X176495010Y-68380780D01*
X161837066Y-74055019D02*
X161837066Y-74769304D01*
X161837066Y-74769304D02*
X161789447Y-74912161D01*
X161789447Y-74912161D02*
X161694209Y-75007400D01*
X161694209Y-75007400D02*
X161551352Y-75055019D01*
X161551352Y-75055019D02*
X161456114Y-75055019D01*
X162456114Y-74483590D02*
X162360876Y-74435971D01*
X162360876Y-74435971D02*
X162313257Y-74388352D01*
X162313257Y-74388352D02*
X162265638Y-74293114D01*
X162265638Y-74293114D02*
X162265638Y-74245495D01*
X162265638Y-74245495D02*
X162313257Y-74150257D01*
X162313257Y-74150257D02*
X162360876Y-74102638D01*
X162360876Y-74102638D02*
X162456114Y-74055019D01*
X162456114Y-74055019D02*
X162646590Y-74055019D01*
X162646590Y-74055019D02*
X162741828Y-74102638D01*
X162741828Y-74102638D02*
X162789447Y-74150257D01*
X162789447Y-74150257D02*
X162837066Y-74245495D01*
X162837066Y-74245495D02*
X162837066Y-74293114D01*
X162837066Y-74293114D02*
X162789447Y-74388352D01*
X162789447Y-74388352D02*
X162741828Y-74435971D01*
X162741828Y-74435971D02*
X162646590Y-74483590D01*
X162646590Y-74483590D02*
X162456114Y-74483590D01*
X162456114Y-74483590D02*
X162360876Y-74531209D01*
X162360876Y-74531209D02*
X162313257Y-74578828D01*
X162313257Y-74578828D02*
X162265638Y-74674066D01*
X162265638Y-74674066D02*
X162265638Y-74864542D01*
X162265638Y-74864542D02*
X162313257Y-74959780D01*
X162313257Y-74959780D02*
X162360876Y-75007400D01*
X162360876Y-75007400D02*
X162456114Y-75055019D01*
X162456114Y-75055019D02*
X162646590Y-75055019D01*
X162646590Y-75055019D02*
X162741828Y-75007400D01*
X162741828Y-75007400D02*
X162789447Y-74959780D01*
X162789447Y-74959780D02*
X162837066Y-74864542D01*
X162837066Y-74864542D02*
X162837066Y-74674066D01*
X162837066Y-74674066D02*
X162789447Y-74578828D01*
X162789447Y-74578828D02*
X162741828Y-74531209D01*
X162741828Y-74531209D02*
X162646590Y-74483590D01*
X149055970Y-60011644D02*
X150234481Y-60247346D01*
X149527374Y-59540240D02*
X149763076Y-60718751D01*
X150874244Y-59607583D02*
X150470183Y-60011644D01*
X150672214Y-59809614D02*
X149965107Y-59102507D01*
X149965107Y-59102507D02*
X149998779Y-59270866D01*
X149998779Y-59270866D02*
X149998779Y-59405553D01*
X149998779Y-59405553D02*
X149965107Y-59506568D01*
X183834819Y-86312333D02*
X184549104Y-86312333D01*
X184549104Y-86312333D02*
X184691961Y-86359952D01*
X184691961Y-86359952D02*
X184787200Y-86455190D01*
X184787200Y-86455190D02*
X184834819Y-86598047D01*
X184834819Y-86598047D02*
X184834819Y-86693285D01*
X184834819Y-85312333D02*
X184834819Y-85883761D01*
X184834819Y-85598047D02*
X183834819Y-85598047D01*
X183834819Y-85598047D02*
X183977676Y-85693285D01*
X183977676Y-85693285D02*
X184072914Y-85788523D01*
X184072914Y-85788523D02*
X184120533Y-85883761D01*
X151966476Y-114161219D02*
X151966476Y-114875504D01*
X151966476Y-114875504D02*
X151918857Y-115018361D01*
X151918857Y-115018361D02*
X151823619Y-115113600D01*
X151823619Y-115113600D02*
X151680762Y-115161219D01*
X151680762Y-115161219D02*
X151585524Y-115161219D01*
X152966476Y-115161219D02*
X152395048Y-115161219D01*
X152680762Y-115161219D02*
X152680762Y-114161219D01*
X152680762Y-114161219D02*
X152585524Y-114304076D01*
X152585524Y-114304076D02*
X152490286Y-114399314D01*
X152490286Y-114399314D02*
X152395048Y-114446933D01*
X153347429Y-114256457D02*
X153395048Y-114208838D01*
X153395048Y-114208838D02*
X153490286Y-114161219D01*
X153490286Y-114161219D02*
X153728381Y-114161219D01*
X153728381Y-114161219D02*
X153823619Y-114208838D01*
X153823619Y-114208838D02*
X153871238Y-114256457D01*
X153871238Y-114256457D02*
X153918857Y-114351695D01*
X153918857Y-114351695D02*
X153918857Y-114446933D01*
X153918857Y-114446933D02*
X153871238Y-114589790D01*
X153871238Y-114589790D02*
X153299810Y-115161219D01*
X153299810Y-115161219D02*
X153918857Y-115161219D01*
X137690266Y-45682819D02*
X137690266Y-46397104D01*
X137690266Y-46397104D02*
X137642647Y-46539961D01*
X137642647Y-46539961D02*
X137547409Y-46635200D01*
X137547409Y-46635200D02*
X137404552Y-46682819D01*
X137404552Y-46682819D02*
X137309314Y-46682819D01*
X138214076Y-46682819D02*
X138404552Y-46682819D01*
X138404552Y-46682819D02*
X138499790Y-46635200D01*
X138499790Y-46635200D02*
X138547409Y-46587580D01*
X138547409Y-46587580D02*
X138642647Y-46444723D01*
X138642647Y-46444723D02*
X138690266Y-46254247D01*
X138690266Y-46254247D02*
X138690266Y-45873295D01*
X138690266Y-45873295D02*
X138642647Y-45778057D01*
X138642647Y-45778057D02*
X138595028Y-45730438D01*
X138595028Y-45730438D02*
X138499790Y-45682819D01*
X138499790Y-45682819D02*
X138309314Y-45682819D01*
X138309314Y-45682819D02*
X138214076Y-45730438D01*
X138214076Y-45730438D02*
X138166457Y-45778057D01*
X138166457Y-45778057D02*
X138118838Y-45873295D01*
X138118838Y-45873295D02*
X138118838Y-46111390D01*
X138118838Y-46111390D02*
X138166457Y-46206628D01*
X138166457Y-46206628D02*
X138214076Y-46254247D01*
X138214076Y-46254247D02*
X138309314Y-46301866D01*
X138309314Y-46301866D02*
X138499790Y-46301866D01*
X138499790Y-46301866D02*
X138595028Y-46254247D01*
X138595028Y-46254247D02*
X138642647Y-46206628D01*
X138642647Y-46206628D02*
X138690266Y-46111390D01*
X173402666Y-118733219D02*
X173402666Y-119447504D01*
X173402666Y-119447504D02*
X173355047Y-119590361D01*
X173355047Y-119590361D02*
X173259809Y-119685600D01*
X173259809Y-119685600D02*
X173116952Y-119733219D01*
X173116952Y-119733219D02*
X173021714Y-119733219D01*
X174307428Y-118733219D02*
X174116952Y-118733219D01*
X174116952Y-118733219D02*
X174021714Y-118780838D01*
X174021714Y-118780838D02*
X173974095Y-118828457D01*
X173974095Y-118828457D02*
X173878857Y-118971314D01*
X173878857Y-118971314D02*
X173831238Y-119161790D01*
X173831238Y-119161790D02*
X173831238Y-119542742D01*
X173831238Y-119542742D02*
X173878857Y-119637980D01*
X173878857Y-119637980D02*
X173926476Y-119685600D01*
X173926476Y-119685600D02*
X174021714Y-119733219D01*
X174021714Y-119733219D02*
X174212190Y-119733219D01*
X174212190Y-119733219D02*
X174307428Y-119685600D01*
X174307428Y-119685600D02*
X174355047Y-119637980D01*
X174355047Y-119637980D02*
X174402666Y-119542742D01*
X174402666Y-119542742D02*
X174402666Y-119304647D01*
X174402666Y-119304647D02*
X174355047Y-119209409D01*
X174355047Y-119209409D02*
X174307428Y-119161790D01*
X174307428Y-119161790D02*
X174212190Y-119114171D01*
X174212190Y-119114171D02*
X174021714Y-119114171D01*
X174021714Y-119114171D02*
X173926476Y-119161790D01*
X173926476Y-119161790D02*
X173878857Y-119209409D01*
X173878857Y-119209409D02*
X173831238Y-119304647D01*
X155894819Y-86312333D02*
X156609104Y-86312333D01*
X156609104Y-86312333D02*
X156751961Y-86359952D01*
X156751961Y-86359952D02*
X156847200Y-86455190D01*
X156847200Y-86455190D02*
X156894819Y-86598047D01*
X156894819Y-86598047D02*
X156894819Y-86693285D01*
X156228152Y-85407571D02*
X156894819Y-85407571D01*
X155847200Y-85645666D02*
X156561485Y-85883761D01*
X156561485Y-85883761D02*
X156561485Y-85264714D01*
X165987505Y-74138419D02*
X165987505Y-73138419D01*
X165987505Y-73138419D02*
X166225600Y-73138419D01*
X166225600Y-73138419D02*
X166368457Y-73186038D01*
X166368457Y-73186038D02*
X166463695Y-73281276D01*
X166463695Y-73281276D02*
X166511314Y-73376514D01*
X166511314Y-73376514D02*
X166558933Y-73566990D01*
X166558933Y-73566990D02*
X166558933Y-73709847D01*
X166558933Y-73709847D02*
X166511314Y-73900323D01*
X166511314Y-73900323D02*
X166463695Y-73995561D01*
X166463695Y-73995561D02*
X166368457Y-74090800D01*
X166368457Y-74090800D02*
X166225600Y-74138419D01*
X166225600Y-74138419D02*
X165987505Y-74138419D01*
X167511314Y-74138419D02*
X166939886Y-74138419D01*
X167225600Y-74138419D02*
X167225600Y-73138419D01*
X167225600Y-73138419D02*
X167130362Y-73281276D01*
X167130362Y-73281276D02*
X167035124Y-73376514D01*
X167035124Y-73376514D02*
X166939886Y-73424133D01*
X172813695Y-73568419D02*
X172813695Y-72568419D01*
X173385123Y-73568419D02*
X172956552Y-72996990D01*
X173385123Y-72568419D02*
X172813695Y-73139847D01*
X135080476Y-67018819D02*
X135080476Y-67733104D01*
X135080476Y-67733104D02*
X135032857Y-67875961D01*
X135032857Y-67875961D02*
X134937619Y-67971200D01*
X134937619Y-67971200D02*
X134794762Y-68018819D01*
X134794762Y-68018819D02*
X134699524Y-68018819D01*
X136080476Y-68018819D02*
X135509048Y-68018819D01*
X135794762Y-68018819D02*
X135794762Y-67018819D01*
X135794762Y-67018819D02*
X135699524Y-67161676D01*
X135699524Y-67161676D02*
X135604286Y-67256914D01*
X135604286Y-67256914D02*
X135509048Y-67304533D01*
X137032857Y-68018819D02*
X136461429Y-68018819D01*
X136747143Y-68018819D02*
X136747143Y-67018819D01*
X136747143Y-67018819D02*
X136651905Y-67161676D01*
X136651905Y-67161676D02*
X136556667Y-67256914D01*
X136556667Y-67256914D02*
X136461429Y-67304533D01*
%TO.C,D9*%
X148728800Y-67518400D02*
X148728800Y-69438400D01*
X148728800Y-69438400D02*
X151418800Y-69438400D01*
X151418800Y-67518400D02*
X148728800Y-67518400D01*
%TO.C,D8*%
X138877999Y-61107200D02*
X141567999Y-61107200D01*
X141567999Y-59187200D02*
X138877999Y-59187200D01*
X141567999Y-61107200D02*
X141567999Y-59187200D01*
%TO.C,D21*%
X164394000Y-79691600D02*
X164394000Y-82381600D01*
X166314000Y-79691600D02*
X164394000Y-79691600D01*
X166314000Y-82381600D02*
X166314000Y-79691600D01*
D12*
%TO.C,J5*%
X128047000Y-113851000D02*
X149067000Y-113851000D01*
X128047000Y-114971000D02*
X149067000Y-114971000D01*
X128047000Y-120071000D02*
X149067000Y-120071000D01*
X128047000Y-120591000D02*
X128047000Y-113851000D01*
X129367000Y-120591000D02*
X128047000Y-120591000D01*
X149067000Y-113851000D02*
X149067000Y-120591000D01*
X149067000Y-120591000D02*
X129967000Y-120591000D01*
X130107000Y-121201000D02*
X129227000Y-121201000D01*
X129667000Y-120591000D01*
X130107000Y-121201000D01*
G36*
X130107000Y-121201000D02*
G01*
X129227000Y-121201000D01*
X129667000Y-120591000D01*
X130107000Y-121201000D01*
G37*
%TO.C,J14*%
X156602000Y-113874000D02*
X162422000Y-113874000D01*
X156602000Y-115594000D02*
X162422000Y-115594000D01*
X156602000Y-118694000D02*
X162422000Y-118694000D01*
X156602000Y-119694000D02*
X162422000Y-119694000D01*
X156602000Y-120614000D02*
X156602000Y-113874000D01*
X157942000Y-120614000D02*
X156602000Y-120614000D01*
X162422000Y-113874000D02*
X162422000Y-120614000D01*
X162422000Y-120614000D02*
X158542000Y-120614000D01*
X158682000Y-121224000D02*
X157802000Y-121224000D01*
X158242000Y-120614000D01*
X158682000Y-121224000D01*
G36*
X158682000Y-121224000D02*
G01*
X157802000Y-121224000D01*
X158242000Y-120614000D01*
X158682000Y-121224000D01*
G37*
D11*
%TO.C,D25*%
X179634000Y-79691600D02*
X179634000Y-82381600D01*
X181554000Y-79691600D02*
X179634000Y-79691600D01*
X181554000Y-82381600D02*
X181554000Y-79691600D01*
%TO.C,D5*%
X134066400Y-79640800D02*
X134066400Y-82330800D01*
X135986400Y-79640800D02*
X134066400Y-79640800D01*
X135986400Y-82330800D02*
X135986400Y-79640800D01*
%TO.C,D13*%
X156164400Y-46527201D02*
X156164400Y-49217201D01*
X158084400Y-46527201D02*
X156164400Y-46527201D01*
X158084400Y-49217201D02*
X158084400Y-46527201D01*
D13*
%TO.C,U1*%
X151435541Y-57085364D02*
X155607471Y-61257294D01*
X155607471Y-52913434D02*
X151435541Y-57085364D01*
X155607471Y-61257294D02*
X159779401Y-57085364D01*
X159779401Y-57085364D02*
X155607471Y-52913434D01*
D14*
X155381197Y-51569931D02*
G75*
G02*
X155388515Y-51563084I-98994J113138D01*
G01*
D15*
X155748893Y-54115515D02*
X155748893Y-54115515D01*
X155748893Y-54115515D01*
X155748893Y-54115515D01*
X155748893Y-54115515D01*
X155748893Y-54115515D01*
X155748893Y-54115516D01*
X155748893Y-54115516D01*
X155748893Y-54115516D01*
X155748893Y-54115516D01*
X155748893Y-54115516D01*
X155748893Y-54115516D01*
X155748893Y-54115516D01*
X155748892Y-54115516D01*
X155748892Y-54115516D01*
X155748892Y-54115516D01*
X155748892Y-54115516D01*
X155748892Y-54115516D01*
X155748892Y-54115516D01*
X155748892Y-54115516D01*
X155748892Y-54115516D01*
X155748892Y-54115516D01*
X155748892Y-54115516D01*
X155748892Y-54115516D01*
X155748892Y-54115516D01*
X155748891Y-54115516D01*
X155748891Y-54115516D01*
X155748891Y-54115516D01*
X155748891Y-54115516D01*
X155748891Y-54115516D01*
X155748891Y-54115516D01*
X155748891Y-54115515D01*
X155748891Y-54115515D01*
X155748891Y-54115515D01*
X155748891Y-54115515D01*
X155748891Y-54115515D01*
X155748891Y-54115515D01*
X155748891Y-54115515D02*
X155748891Y-54115515D01*
X155748891Y-54115515D01*
X155748891Y-54115515D01*
X155748891Y-54115515D01*
X155748891Y-54115515D01*
X155748891Y-54115515D01*
X155748891Y-54115514D01*
X155748891Y-54115514D01*
X155748891Y-54115514D01*
X155748891Y-54115514D01*
X155748891Y-54115514D01*
X155748892Y-54115514D01*
X155748892Y-54115514D01*
X155748892Y-54115514D01*
X155748892Y-54115514D01*
X155748892Y-54115514D01*
X155748892Y-54115514D01*
X155748892Y-54115514D01*
X155748892Y-54115514D01*
X155748892Y-54115514D01*
X155748892Y-54115514D01*
X155748892Y-54115514D01*
X155748892Y-54115514D01*
X155748893Y-54115514D01*
X155748893Y-54115514D01*
X155748893Y-54115514D01*
X155748893Y-54115514D01*
X155748893Y-54115514D01*
X155748893Y-54115514D01*
X155748893Y-54115515D01*
X155748893Y-54115515D01*
X155748893Y-54115515D01*
X155748893Y-54115515D01*
X155748893Y-54115515D01*
X155748893Y-54115515D01*
X155748893Y-54115515D01*
D11*
%TO.C,D20*%
X161955600Y-79691600D02*
X161955600Y-82381600D01*
X163875600Y-79691600D02*
X161955600Y-79691600D01*
X163875600Y-82381600D02*
X163875600Y-79691600D01*
D12*
%TO.C,J2*%
X129480000Y-109922000D02*
X129480000Y-112582000D01*
X152399999Y-109922000D02*
X129480000Y-109922000D01*
X152399999Y-109922000D02*
X152399999Y-112582000D01*
X152399999Y-112582000D02*
X129480000Y-112582000D01*
X155000000Y-111252000D02*
X155000000Y-112582000D01*
X155000000Y-112582000D02*
X153670000Y-112582000D01*
D11*
%TO.C,D15*%
X144074000Y-79691600D02*
X144074000Y-82381600D01*
X145994000Y-79691600D02*
X144074000Y-79691600D01*
X145994000Y-82381600D02*
X145994000Y-79691600D01*
%TO.C,D4*%
X131729600Y-79640800D02*
X131729600Y-82330800D01*
X133649600Y-79640800D02*
X131729600Y-79640800D01*
X133649600Y-82330800D02*
X133649600Y-79640800D01*
D12*
%TO.C,J7*%
X152929600Y-69733399D02*
X152929600Y-64593401D01*
X152929600Y-72333400D02*
X152929600Y-71003400D01*
X154259600Y-72333400D02*
X152929600Y-72333400D01*
X155529600Y-69733400D02*
X152929600Y-69733399D01*
X155529601Y-72333400D02*
X155529600Y-69733400D01*
X158129600Y-64593400D02*
X152929600Y-64593401D01*
X158129600Y-72333400D02*
X155529601Y-72333400D01*
X158129600Y-72333400D02*
X158129600Y-64593400D01*
%TO.C,J10*%
X174390000Y-38108000D02*
X174390000Y-39108000D01*
X174390000Y-39108000D02*
X175390000Y-38608000D01*
X175390000Y-38608000D02*
X174390000Y-38108000D01*
X175780000Y-33398000D02*
X184900000Y-33398000D01*
X175780000Y-44178000D02*
X177090000Y-44178000D01*
X175780000Y-59058000D02*
X175780000Y-33398000D01*
X177090000Y-34698000D02*
X183590000Y-34698000D01*
X177090000Y-44178000D02*
X177090000Y-34698000D01*
X177090000Y-48278000D02*
X175780000Y-48278000D01*
X177090000Y-57758000D02*
X177090000Y-48278000D01*
X183590000Y-34698000D02*
X183590000Y-57758000D01*
X183590000Y-57758000D02*
X177090000Y-57758000D01*
X184900000Y-33398000D02*
X184900000Y-59058000D01*
X184900000Y-59058000D02*
X175780000Y-59058000D01*
%TO.C,J3*%
X157420000Y-109922000D02*
X157420000Y-112582000D01*
X180339999Y-109922000D02*
X157420000Y-109922000D01*
X180339999Y-109922000D02*
X180339999Y-112582000D01*
X180339999Y-112582000D02*
X157420000Y-112582000D01*
X182940000Y-111252000D02*
X182940000Y-112582000D01*
X182940000Y-112582000D02*
X181610000Y-112582000D01*
%TO.C,J13*%
X177590000Y-73355000D02*
X177590000Y-74605000D01*
X177590000Y-74605000D02*
X178840000Y-74605000D01*
X177880000Y-61695000D02*
X177880000Y-74315000D01*
X177880000Y-74315000D02*
X183850000Y-74315000D01*
X177889999Y-63505000D02*
X178640000Y-63505001D01*
X177889999Y-71005000D02*
X178640000Y-71004999D01*
X177889999Y-72505000D02*
X177890000Y-74305000D01*
X177890000Y-61705000D02*
X177889999Y-63505000D01*
X177890000Y-65005000D02*
X177889999Y-71005000D01*
X177890000Y-74305000D02*
X178640000Y-74305000D01*
X178640000Y-61705000D02*
X177890000Y-61705000D01*
X178640000Y-63505001D02*
X178640000Y-61705000D01*
X178640000Y-65005000D02*
X177890000Y-65005000D01*
X178640000Y-71004999D02*
X178640000Y-65005000D01*
X178640000Y-72505001D02*
X177889999Y-72505000D01*
X178640000Y-74305000D02*
X178640000Y-72505001D01*
X180140000Y-61705000D02*
X180140001Y-62455000D01*
X180140000Y-73555000D02*
X183090000Y-73555000D01*
X180140000Y-74305000D02*
X180140000Y-73555000D01*
X180140001Y-62455000D02*
X183090000Y-62455000D01*
X183090000Y-62455000D02*
X183090000Y-68005000D01*
X183090000Y-73555000D02*
X183090000Y-68005000D01*
X183850000Y-61695000D02*
X177880000Y-61695000D01*
X183850000Y-74315000D02*
X183850000Y-61695000D01*
D11*
%TO.C,D16*%
X146614000Y-79691600D02*
X146614000Y-82381600D01*
X148534000Y-79691600D02*
X146614000Y-79691600D01*
X148534000Y-82381600D02*
X148534000Y-79691600D01*
%TO.C,D11*%
X155808800Y-42404400D02*
X155808800Y-45094400D01*
X157728800Y-42404400D02*
X155808800Y-42404400D01*
X157728800Y-45094400D02*
X157728800Y-42404400D01*
%TO.C,D17*%
X149154000Y-79691600D02*
X149154000Y-82381600D01*
X151074000Y-79691600D02*
X149154000Y-79691600D01*
X151074000Y-82381600D02*
X151074000Y-79691600D01*
%TO.C,D14*%
X136403200Y-79640800D02*
X136403200Y-82330800D01*
X138323200Y-79640800D02*
X136403200Y-79640800D01*
X138323200Y-82330800D02*
X138323200Y-79640800D01*
D12*
%TO.C,J8*%
X150450400Y-73270200D02*
X150450400Y-75930200D01*
X158130399Y-73270200D02*
X150450400Y-73270200D01*
X158130399Y-73270200D02*
X158130399Y-75930200D01*
X158130399Y-75930200D02*
X150450400Y-75930200D01*
X160730400Y-74600200D02*
X160730400Y-75930200D01*
X160730400Y-75930200D02*
X159400400Y-75930200D01*
D11*
%TO.C,X1*%
X143961057Y-56642745D02*
X146831910Y-53771892D01*
X146336936Y-59018624D02*
X143961057Y-56642745D01*
X146831910Y-53446623D02*
X145516692Y-54761841D01*
X146831910Y-53771892D02*
X149207789Y-56147771D01*
X148005708Y-54620420D02*
X146831910Y-53446623D01*
X149207789Y-56147771D02*
X146336936Y-59018624D01*
D12*
%TO.C,J1*%
X157420000Y-84649000D02*
X157420000Y-87309000D01*
X180339999Y-84649000D02*
X157420000Y-84649000D01*
X180339999Y-84649000D02*
X180339999Y-87309000D01*
X180339999Y-87309000D02*
X157420000Y-87309000D01*
X182940000Y-85979000D02*
X182940000Y-87309000D01*
X182940000Y-87309000D02*
X181610000Y-87309000D01*
%TO.C,J12*%
X149866000Y-113845500D02*
X155686000Y-113845500D01*
X149866000Y-115565500D02*
X155686000Y-115565500D01*
X149866000Y-118665500D02*
X155686000Y-118665500D01*
X149866000Y-119665500D02*
X155686000Y-119665500D01*
X149866000Y-120585500D02*
X149866000Y-113845500D01*
X151206000Y-120585500D02*
X149866000Y-120585500D01*
X155686000Y-113845500D02*
X155686000Y-120585500D01*
X155686000Y-120585500D02*
X151806000Y-120585500D01*
X151946000Y-121195500D02*
X151066000Y-121195500D01*
X151506000Y-120585500D01*
X151946000Y-121195500D01*
G36*
X151946000Y-121195500D02*
G01*
X151066000Y-121195500D01*
X151506000Y-120585500D01*
X151946000Y-121195500D01*
G37*
D11*
%TO.C,D3*%
X129291200Y-79640800D02*
X129291200Y-82330800D01*
X131211200Y-79640800D02*
X129291200Y-79640800D01*
X131211200Y-82330800D02*
X131211200Y-79640800D01*
%TO.C,S1*%
X163921600Y-43076800D02*
X163921600Y-45416800D01*
X164301600Y-45906800D02*
X165191600Y-46796800D01*
X164671600Y-43246800D02*
X165471600Y-42446800D01*
X164671600Y-45246800D02*
X164671600Y-43246800D01*
X165191600Y-41696800D02*
X164301600Y-42586800D01*
X165191600Y-41696800D02*
X167751600Y-41696800D01*
X165191600Y-46796800D02*
X167751600Y-46796800D01*
X165471600Y-42446800D02*
X167371600Y-42446800D01*
X165571600Y-46146800D02*
X164671600Y-45246800D01*
X167271600Y-46146799D02*
X165571600Y-46146800D01*
X167371600Y-42446800D02*
X168271600Y-43346800D01*
X167751600Y-41696800D02*
X168641600Y-42586800D01*
X168271600Y-43346800D02*
X168271600Y-45146800D01*
X168271600Y-45146800D02*
X167271600Y-46146799D01*
X168641600Y-45906800D02*
X167751600Y-46796800D01*
X169021600Y-43076800D02*
X169021600Y-45416800D01*
X163251600Y-41746800D02*
G75*
G02*
X163191600Y-41746800I-30000J0D01*
G01*
X163191600Y-41746800D02*
G75*
G02*
X163251600Y-41746800I30000J0D01*
G01*
X167751600Y-44246800D02*
G75*
G02*
X165191600Y-44246800I-1280000J0D01*
G01*
X165191600Y-44246800D02*
G75*
G02*
X167751600Y-44246800I1280000J0D01*
G01*
D12*
%TO.C,J9*%
X125876000Y-38108000D02*
X125876000Y-39108000D01*
X125876000Y-39108000D02*
X126876000Y-38608000D01*
X126876000Y-38608000D02*
X125876000Y-38108000D01*
X127266000Y-33398000D02*
X136386000Y-33398000D01*
X127266000Y-44178000D02*
X128576000Y-44178000D01*
X127266000Y-59058000D02*
X127266000Y-33398000D01*
X128576000Y-34698000D02*
X135076000Y-34698000D01*
X128576000Y-44178000D02*
X128576000Y-34698000D01*
X128576000Y-48278000D02*
X127266000Y-48278000D01*
X128576000Y-57758000D02*
X128576000Y-48278000D01*
X135076000Y-34698000D02*
X135076000Y-57758000D01*
X135076000Y-57758000D02*
X128576000Y-57758000D01*
X136386000Y-33398000D02*
X136386000Y-59058000D01*
X136386000Y-59058000D02*
X127266000Y-59058000D01*
D11*
%TO.C,D10*%
X148728800Y-65384800D02*
X148728800Y-67304800D01*
X148728800Y-67304800D02*
X151418800Y-67304800D01*
X151418800Y-65384800D02*
X148728800Y-65384800D01*
%TO.C,D6*%
X161590000Y-47270400D02*
X161590000Y-50570400D01*
X161590000Y-47270400D02*
X167100000Y-47270400D01*
X161590000Y-50570400D02*
X167100000Y-50570400D01*
%TO.C,D22*%
X172014000Y-79666001D02*
X172014000Y-82356001D01*
X173934000Y-79666001D02*
X172014000Y-79666001D01*
X173934000Y-82356001D02*
X173934000Y-79666001D01*
%TO.C,D2*%
X156774000Y-79691600D02*
X156774000Y-82381600D01*
X158694000Y-79691600D02*
X156774000Y-79691600D01*
X158694000Y-82381600D02*
X158694000Y-79691600D01*
%TO.C,D18*%
X151744800Y-79691600D02*
X151744800Y-82381600D01*
X153664800Y-79691600D02*
X151744800Y-79691600D01*
X153664800Y-82381600D02*
X153664800Y-79691600D01*
D12*
%TO.C,J6*%
X163226000Y-113851000D02*
X184246000Y-113851000D01*
X163226000Y-114971000D02*
X184246000Y-114971000D01*
X163226000Y-120071000D02*
X184246000Y-120071000D01*
X163226000Y-120591000D02*
X163226000Y-113851000D01*
X164546000Y-120591000D02*
X163226000Y-120591000D01*
X184246000Y-113851000D02*
X184246000Y-120591000D01*
X184246000Y-120591000D02*
X165146000Y-120591000D01*
X165286000Y-121201000D02*
X164406000Y-121201000D01*
X164846000Y-120591000D01*
X165286000Y-121201000D01*
G36*
X165286000Y-121201000D02*
G01*
X164406000Y-121201000D01*
X164846000Y-120591000D01*
X165286000Y-121201000D01*
G37*
D11*
%TO.C,D24*%
X177094000Y-79691600D02*
X177094000Y-82381600D01*
X179014000Y-79691600D02*
X177094000Y-79691600D01*
X179014000Y-82381600D02*
X179014000Y-79691600D01*
%TO.C,D19*%
X159364800Y-79691600D02*
X159364800Y-82381600D01*
X161284800Y-79691600D02*
X159364800Y-79691600D01*
X161284800Y-82381600D02*
X161284800Y-79691600D01*
D12*
%TO.C,J4*%
X129480000Y-84649000D02*
X129480000Y-87309000D01*
X152399999Y-84649000D02*
X129480000Y-84649000D01*
X152399999Y-84649000D02*
X152399999Y-87309000D01*
X152399999Y-87309000D02*
X129480000Y-87309000D01*
X155000000Y-85979000D02*
X155000000Y-87309000D01*
X155000000Y-87309000D02*
X153670000Y-87309000D01*
D11*
%TO.C,D23*%
X174554000Y-79691600D02*
X174554000Y-82381600D01*
X176474000Y-79691600D02*
X174554000Y-79691600D01*
X176474000Y-82381600D02*
X176474000Y-79691600D01*
%TO.C,D12*%
X157942400Y-42404400D02*
X157942400Y-45094400D01*
X159862400Y-42404400D02*
X157942400Y-42404400D01*
X159862400Y-45094400D02*
X159862400Y-42404400D01*
D12*
%TO.C,D1*%
X162015600Y-70713600D02*
X162155600Y-70713600D01*
X169720600Y-72683600D02*
X169720600Y-68743600D01*
X169840600Y-72683600D02*
X169840600Y-68743600D01*
X169960600Y-72683600D02*
X169960600Y-68743600D01*
X171435600Y-70713600D02*
X171295600Y-70713600D01*
X171295600Y-72683599D02*
X162155600Y-72683599D01*
X162155600Y-68743601D01*
X171295600Y-68743601D01*
X171295600Y-72683599D01*
%TO.C,J11*%
X128206000Y-61254000D02*
X128206000Y-73874000D01*
X128206000Y-73874000D02*
X134176000Y-73874000D01*
X128966000Y-62014000D02*
X128966000Y-67564000D01*
X128966000Y-73114000D02*
X128966000Y-67564000D01*
X131915999Y-73114000D02*
X128966000Y-73114000D01*
X131916000Y-61264000D02*
X131916000Y-62014000D01*
X131916000Y-62014000D02*
X128966000Y-62014000D01*
X131916000Y-73864000D02*
X131915999Y-73114000D01*
X133416000Y-61264000D02*
X133416000Y-63063999D01*
X133416000Y-63063999D02*
X134166001Y-63064000D01*
X133416000Y-64564001D02*
X133416000Y-70564000D01*
X133416000Y-70564000D02*
X134166000Y-70564000D01*
X133416000Y-72063999D02*
X133416000Y-73864000D01*
X133416000Y-73864000D02*
X134166000Y-73864000D01*
X134166000Y-61264000D02*
X133416000Y-61264000D01*
X134166000Y-70564000D02*
X134166001Y-64564000D01*
X134166000Y-73864000D02*
X134166001Y-72064000D01*
X134166001Y-63064000D02*
X134166000Y-61264000D01*
X134166001Y-64564000D02*
X133416000Y-64564001D01*
X134166001Y-72064000D02*
X133416000Y-72063999D01*
X134176000Y-61254000D02*
X128206000Y-61254000D01*
X134176000Y-73874000D02*
X134176000Y-61254000D01*
X134466000Y-60964000D02*
X133216000Y-60964000D01*
X134466000Y-62214000D02*
X134466000Y-60964000D01*
D11*
%TO.C,D7*%
X138903200Y-63240800D02*
X141593200Y-63240800D01*
X141593200Y-61320800D02*
X138903200Y-61320800D01*
X141593200Y-63240800D02*
X141593200Y-61320800D01*
%TD*%
%LPC*%
D16*
%TO.C,R17*%
X176513998Y-83616800D03*
X175514000Y-83616800D03*
%TD*%
D17*
%TO.C,R5*%
X162719601Y-51358800D03*
X161079599Y-51358800D03*
%TD*%
D18*
%TO.C,D9*%
X149478800Y-68478400D03*
X151358800Y-68478400D03*
%TD*%
D19*
%TO.C,R8*%
X148082000Y-68978399D03*
X148082000Y-67978401D03*
%TD*%
D20*
%TO.C,R9*%
X148082000Y-65895601D03*
X148082000Y-66895599D03*
%TD*%
D21*
%TO.C,D8*%
X140817998Y-60147200D03*
X138938000Y-60147200D03*
%TD*%
D22*
%TO.C,D21*%
X165354000Y-80441601D03*
X165354000Y-82321599D03*
%TD*%
D23*
%TO.C,J5*%
X129667000Y-117221000D03*
D24*
X132207000Y-117221000D03*
X134747000Y-117221000D03*
X137287000Y-117221000D03*
X139827000Y-117221000D03*
X142367000Y-117221000D03*
X144907000Y-117221000D03*
X147447000Y-117221000D03*
%TD*%
D25*
%TO.C,J14*%
X158242000Y-117094000D03*
D26*
X160782000Y-117094000D03*
%TD*%
D16*
%TO.C,R13*%
X151121999Y-83616800D03*
X150122001Y-83616800D03*
%TD*%
D22*
%TO.C,D25*%
X180594000Y-80441601D03*
X180594000Y-82321599D03*
%TD*%
%TO.C,D5*%
X135026400Y-80390801D03*
X135026400Y-82270799D03*
%TD*%
D16*
%TO.C,R6*%
X146041999Y-83616800D03*
X145042001Y-83616800D03*
%TD*%
D22*
%TO.C,D13*%
X157124400Y-47277202D03*
X157124400Y-49157200D03*
%TD*%
D16*
%TO.C,R4*%
X138371199Y-83616800D03*
X137371201Y-83616800D03*
%TD*%
%TO.C,R18*%
X173981999Y-83667600D03*
X172982001Y-83667600D03*
%TD*%
%TO.C,R14*%
X153704798Y-83667600D03*
X152704800Y-83667600D03*
%TD*%
D27*
%TO.C,U1*%
X154490242Y-52022479D03*
X153924557Y-52588165D03*
X153358872Y-53153850D03*
X152793186Y-53719536D03*
X152227501Y-54285221D03*
X151661815Y-54850907D03*
X151096130Y-55416592D03*
X150530444Y-55982277D03*
D28*
X150523373Y-58209664D03*
X151089059Y-58775349D03*
X151654744Y-59341035D03*
X152220430Y-59906720D03*
X152786115Y-60472405D03*
X153351800Y-61038091D03*
X153917486Y-61603776D03*
X154483171Y-62169462D03*
D27*
X156710558Y-62162391D03*
X157276243Y-61596705D03*
X157841928Y-61031020D03*
X158407614Y-60465334D03*
X158973299Y-59899649D03*
X159538985Y-59333963D03*
X160104670Y-58768278D03*
X160670356Y-58202593D03*
D28*
X160677427Y-55975206D03*
X160111741Y-55409521D03*
X159546056Y-54843835D03*
X158980370Y-54278150D03*
X158414685Y-53712465D03*
X157849000Y-53146779D03*
X157283314Y-52581094D03*
X156717629Y-52015408D03*
%TD*%
D22*
%TO.C,D20*%
X162915600Y-80441601D03*
X162915600Y-82321599D03*
%TD*%
D29*
%TO.C,J2*%
X153670000Y-111252000D03*
D30*
X151130000Y-111252000D03*
X148590001Y-111252000D03*
X146050000Y-111252000D03*
X143510000Y-111252000D03*
X140970000Y-111252000D03*
X138430000Y-111252000D03*
X135889999Y-111252000D03*
X133350000Y-111252000D03*
X130810000Y-111252000D03*
%TD*%
D22*
%TO.C,D15*%
X145034000Y-80441601D03*
X145034000Y-82321599D03*
%TD*%
%TO.C,D4*%
X132689600Y-80390801D03*
X132689600Y-82270799D03*
%TD*%
D29*
%TO.C,J7*%
X154259600Y-71003400D03*
D30*
X156799600Y-71003400D03*
X154259600Y-68463400D03*
X156799600Y-68463400D03*
X154259600Y-65923401D03*
X156799600Y-65923400D03*
%TD*%
D31*
%TO.C,J10*%
X179070000Y-38608000D03*
D30*
X181610000Y-38608000D03*
X179070000Y-41148000D03*
X181610000Y-41148000D03*
X179070000Y-43688000D03*
X181610000Y-43688000D03*
X179070000Y-46228000D03*
X181610000Y-46228000D03*
X179070000Y-48768000D03*
X181610000Y-48768000D03*
X179070000Y-51308000D03*
X181610000Y-51308000D03*
X179070000Y-53848000D03*
X181610000Y-53848000D03*
%TD*%
D29*
%TO.C,J3*%
X181610000Y-111252000D03*
D30*
X179070000Y-111252000D03*
X176530001Y-111252000D03*
X173990000Y-111252000D03*
X171450000Y-111252000D03*
X168910000Y-111252000D03*
X166370000Y-111252000D03*
X163829999Y-111252000D03*
X161290000Y-111252000D03*
X158750000Y-111252000D03*
%TD*%
D32*
%TO.C,J13*%
X180340000Y-71755000D03*
D33*
X180340000Y-69255000D03*
X180340000Y-66755000D03*
X180340000Y-64255000D03*
%TD*%
D22*
%TO.C,D16*%
X147574000Y-80441601D03*
X147574000Y-82321599D03*
%TD*%
%TO.C,D11*%
X156768800Y-43154401D03*
X156768800Y-45034399D03*
%TD*%
D16*
%TO.C,R20*%
X163872799Y-83616800D03*
X162872801Y-83616800D03*
%TD*%
D22*
%TO.C,D17*%
X150114000Y-80441601D03*
X150114000Y-82321599D03*
%TD*%
D16*
%TO.C,R7*%
X148581999Y-83616800D03*
X147582001Y-83616800D03*
%TD*%
%TO.C,R15*%
X181610000Y-83616800D03*
X180610002Y-83616800D03*
%TD*%
D22*
%TO.C,D14*%
X137363200Y-80390801D03*
X137363200Y-82270799D03*
%TD*%
D29*
%TO.C,J8*%
X159400400Y-74600200D03*
D30*
X156860400Y-74600200D03*
X154320401Y-74600200D03*
X151780400Y-74600200D03*
%TD*%
D34*
%TO.C,X1*%
X146761200Y-55016400D03*
X145205565Y-56572035D03*
X146407646Y-57774116D03*
X147963281Y-56218481D03*
%TD*%
D16*
%TO.C,R11*%
X159351599Y-41706800D03*
X158351601Y-41706800D03*
%TD*%
D29*
%TO.C,J1*%
X181610000Y-85979000D03*
D30*
X179070000Y-85979000D03*
X176530001Y-85979000D03*
X173990000Y-85979000D03*
X171450000Y-85979000D03*
X168910000Y-85979000D03*
X166370000Y-85979000D03*
X163829999Y-85979000D03*
X161290000Y-85979000D03*
X158750000Y-85979000D03*
%TD*%
D35*
%TO.C,C1*%
X147980400Y-58369200D03*
X147273294Y-59076306D03*
%TD*%
D25*
%TO.C,J12*%
X151506000Y-117065500D03*
D26*
X154046000Y-117065500D03*
%TD*%
D16*
%TO.C,R16*%
X179061999Y-83616800D03*
X178062001Y-83616800D03*
%TD*%
D36*
%TO.C,R10*%
X156268800Y-41706800D03*
X157268800Y-41706800D03*
%TD*%
D37*
%TO.C,R24*%
X135832000Y-60452000D03*
X137472000Y-60452000D03*
%TD*%
D16*
%TO.C,R21*%
X161324798Y-83616800D03*
X160324800Y-83616800D03*
%TD*%
D22*
%TO.C,D3*%
X130251200Y-80390801D03*
X130251200Y-82270799D03*
%TD*%
D38*
%TO.C,S1*%
X163171600Y-42396800D03*
X169771600Y-42396800D03*
X163171600Y-46096800D03*
X169771600Y-46096800D03*
%TD*%
D31*
%TO.C,J9*%
X130556000Y-38608000D03*
D30*
X133096000Y-38608000D03*
X130556000Y-41148000D03*
X133096000Y-41148000D03*
X130556000Y-43688000D03*
X133096000Y-43688000D03*
X130556000Y-46228000D03*
X133096000Y-46228000D03*
X130556000Y-48768000D03*
X133096000Y-48768000D03*
X130556000Y-51308000D03*
X133096000Y-51308000D03*
X130556000Y-53848000D03*
X133096000Y-53848000D03*
%TD*%
D18*
%TO.C,D10*%
X149478800Y-66344800D03*
X151358800Y-66344800D03*
%TD*%
D39*
%TO.C,D6*%
X163099999Y-48920400D03*
X167100001Y-48920400D03*
%TD*%
D16*
%TO.C,R1*%
X131259199Y-83566000D03*
X130259201Y-83566000D03*
%TD*%
D22*
%TO.C,D22*%
X172974000Y-80416002D03*
X172974000Y-82296000D03*
%TD*%
%TO.C,D2*%
X157734000Y-80441601D03*
X157734000Y-82321599D03*
%TD*%
%TO.C,D18*%
X152704800Y-80441601D03*
X152704800Y-82321599D03*
%TD*%
D16*
%TO.C,R22*%
X158741999Y-83616800D03*
X157742001Y-83616800D03*
%TD*%
D37*
%TO.C,R23*%
X135832000Y-61874400D03*
X137472000Y-61874400D03*
%TD*%
D23*
%TO.C,J6*%
X164846000Y-117221000D03*
D24*
X167386000Y-117221000D03*
X169925999Y-117221000D03*
X172466000Y-117221000D03*
X175006000Y-117221000D03*
X177546000Y-117221000D03*
X180086000Y-117221000D03*
X182626001Y-117221000D03*
%TD*%
D16*
%TO.C,R3*%
X136034399Y-83616800D03*
X135034401Y-83616800D03*
%TD*%
D22*
%TO.C,D24*%
X178054000Y-80441601D03*
X178054000Y-82321599D03*
%TD*%
%TO.C,D19*%
X160324800Y-80441601D03*
X160324800Y-82321599D03*
%TD*%
D29*
%TO.C,J4*%
X153670000Y-85979000D03*
D30*
X151130000Y-85979000D03*
X148590001Y-85979000D03*
X146050000Y-85979000D03*
X143510000Y-85979000D03*
X140970000Y-85979000D03*
X138430000Y-85979000D03*
X135889999Y-85979000D03*
X133350000Y-85979000D03*
X130810000Y-85979000D03*
%TD*%
D16*
%TO.C,R2*%
X133689598Y-83566000D03*
X132689600Y-83566000D03*
%TD*%
D22*
%TO.C,D23*%
X175514000Y-80441601D03*
X175514000Y-82321599D03*
%TD*%
%TO.C,D12*%
X158902400Y-43154401D03*
X158902400Y-45034399D03*
%TD*%
D40*
%TO.C,D1*%
X173075600Y-70713600D03*
D41*
X160375600Y-70713600D03*
%TD*%
D16*
%TO.C,R19*%
X166361999Y-83616800D03*
X165362001Y-83616800D03*
%TD*%
D42*
%TO.C,C2*%
X149146753Y-54861953D03*
X148439647Y-54154847D03*
%TD*%
D43*
%TO.C,C3*%
X150672800Y-51968400D03*
X151379906Y-51261294D03*
%TD*%
D44*
%TO.C,J11*%
X131716000Y-63814000D03*
D33*
X131716000Y-66314000D03*
X131716000Y-68814000D03*
X131716000Y-71314000D03*
%TD*%
D21*
%TO.C,D7*%
X140843199Y-62280800D03*
X138963201Y-62280800D03*
%TD*%
D20*
%TO.C,R12*%
X155549600Y-47107602D03*
X155549600Y-48107600D03*
%TD*%
%LPD*%
M02*
