M48
; DRILL file {KiCad 9.0.3} date 2026-03-08T17:39:20+0100
; FORMAT={-:-/ absolute / inch / decimal}
; #@! TF.CreationDate,2026-03-08T17:39:20+01:00
; #@! TF.GenerationSoftware,Kicad,Pcbnew,9.0.3
; #@! TF.FileFunction,Plated,1,2,PTH
FMAT,2
INCH
; #@! TA.AperFunction,Plated,PTH,ViaDrill
T1C0.0118
; #@! TA.AperFunction,Plated,PTH,ComponentDrill
T2C0.0374
; #@! TA.AperFunction,Plated,PTH,ComponentDrill
T3C0.0394
; #@! TA.AperFunction,Plated,PTH,ComponentDrill
T4C0.0433
; #@! TA.AperFunction,Plated,PTH,ComponentDrill
T5C0.0472
; #@! TA.AperFunction,Plated,PTH,ComponentDrill
T6C0.0551
%
G90
G05
T1
X5.128Y-3.104
X5.224Y-3.104
X5.316Y-3.104
X5.408Y-3.104
X5.43Y-1.49
X5.43Y-1.528
X5.43Y-1.96
X5.43Y-1.99
X5.458Y-2.514
X5.466Y-2.234
X5.49Y-2.258
X5.645Y-2.679
X5.662Y-2.696
X5.686Y-2.022
X5.71Y-3.106
X5.718Y-2.022
X5.772Y-2.352
X5.79Y-2.652
X5.81Y-3.106
X5.858Y-2.064
X5.878Y-2.2
X5.91Y-3.106
X5.95Y-2.094
X5.982Y-2.556
X5.99Y-2.044
X6.012Y-3.106
X6.08Y-1.892
X6.0941Y-1.9202
X6.126Y-2.536
X6.154Y-2.35
X6.21Y-3.11
X6.214Y-1.6096
X6.248Y-2.57
X6.304Y-2.404
X6.31Y-3.11
X6.338Y-2.682
X6.368Y-2.682
X6.414Y-3.112
X6.51Y-3.112
X6.65Y-2.682
X6.662Y-1.92
X6.682Y-2.682
X6.71Y-3.06
X6.71Y-3.094
X6.746Y-1.668
X6.788Y-3.118
X6.91Y-3.112
X7.01Y-3.112
X7.11Y-3.112
T2
X5.1857Y-2.5124
X5.1857Y-2.6108
X5.1857Y-2.7092
X5.1857Y-2.8076
X7.1Y-2.5297
X7.1Y-2.6281
X7.1Y-2.7266
X7.1Y-2.825
T3
X5.14Y-1.52
X5.14Y-1.62
X5.14Y-1.72
X5.14Y-1.82
X5.14Y-1.92
X5.14Y-2.02
X5.14Y-2.12
X5.15Y-3.385
X5.15Y-4.38
X5.24Y-1.52
X5.24Y-1.62
X5.24Y-1.72
X5.24Y-1.82
X5.24Y-1.92
X5.24Y-2.02
X5.24Y-2.12
X5.25Y-3.385
X5.25Y-4.38
X5.35Y-3.385
X5.35Y-4.38
X5.45Y-3.385
X5.45Y-4.38
X5.55Y-3.385
X5.55Y-4.38
X5.65Y-3.385
X5.65Y-4.38
X5.75Y-3.385
X5.75Y-4.38
X5.85Y-3.385
X5.85Y-4.38
X5.95Y-3.385
X5.95Y-4.38
X5.9756Y-2.937
X6.05Y-3.385
X6.05Y-4.38
X6.0732Y-2.5954
X6.0732Y-2.6954
X6.0732Y-2.7954
X6.0756Y-2.937
X6.1732Y-2.5954
X6.1732Y-2.6954
X6.1732Y-2.7954
X6.1756Y-2.937
X6.25Y-3.385
X6.25Y-4.38
X6.2756Y-2.937
X6.35Y-3.385
X6.35Y-4.38
X6.45Y-3.385
X6.45Y-4.38
X6.55Y-3.385
X6.55Y-4.38
X6.65Y-3.385
X6.65Y-4.38
X6.75Y-3.385
X6.75Y-4.38
X6.85Y-3.385
X6.85Y-4.38
X6.95Y-3.385
X6.95Y-4.38
X7.05Y-1.52
X7.05Y-1.62
X7.05Y-1.72
X7.05Y-1.82
X7.05Y-1.92
X7.05Y-2.02
X7.05Y-2.12
X7.05Y-3.385
X7.05Y-4.38
X7.15Y-1.52
X7.15Y-1.62
X7.15Y-1.72
X7.15Y-1.82
X7.15Y-1.92
X7.15Y-2.02
X7.15Y-2.12
X7.15Y-3.385
X7.15Y-4.38
T4
X5.105Y-4.615
X5.205Y-4.615
X5.305Y-4.615
X5.405Y-4.615
X5.505Y-4.615
X5.605Y-4.615
X5.705Y-4.615
X5.805Y-4.615
X6.49Y-4.615
X6.59Y-4.615
X6.69Y-4.615
X6.79Y-4.615
X6.89Y-4.615
X6.99Y-4.615
X7.09Y-4.615
X7.19Y-4.615
T5
X5.9648Y-4.6089
X6.0648Y-4.6089
X6.23Y-4.61
X6.33Y-4.61
T6
X6.314Y-2.784
X6.814Y-2.784
M30
