M48
; DRILL file {KiCad 9.0.3} date 2026-03-20T14:52:29+0100
; FORMAT={-:-/ absolute / inch / decimal}
; #@! TF.CreationDate,2026-03-20T14:52:29+01:00
; #@! TF.GenerationSoftware,Kicad,Pcbnew,9.0.3
; #@! TF.FileFunction,Plated,1,2,PTH
FMAT,2
INCH
; #@! TA.AperFunction,Plated,PTH,ViaDrill
T1C0.0118
; #@! TA.AperFunction,Plated,PTH,ComponentDrill
T2C0.0374
; #@! TA.AperFunction,Plated,PTH,ComponentDrill
T3C0.0394
; #@! TA.AperFunction,Plated,PTH,ComponentDrill
T4C0.0433
; #@! TA.AperFunction,Plated,PTH,ComponentDrill
T5C0.0472
; #@! TA.AperFunction,Plated,PTH,ComponentDrill
T6C0.0551
%
G90
G05
T1
X5.128Y-2.998
X5.224Y-2.998
X5.316Y-2.997
X5.408Y-2.997
X5.43Y-1.5906
X5.43Y-1.6437
X5.43Y-1.9953
X5.4307Y-2.0244
X5.466Y-2.234
X5.4881Y-2.4793
X5.49Y-2.258
X5.645Y-2.679
X5.662Y-2.696
X5.673Y-2.999
X5.686Y-2.022
X5.718Y-2.022
X5.772Y-2.352
X5.79Y-2.652
X5.794Y-2.999
X5.844Y-2.05
X5.87Y-2.076
X5.878Y-2.2
X5.879Y-2.999
X5.982Y-2.556
X5.99Y-2.044
X6.0123Y-3.0106
X6.036Y-2.176
X6.0433Y-2.2244
X6.0827Y-2.2244
X6.0932Y-1.8899
X6.1024Y-1.92
X6.126Y-2.536
X6.154Y-2.2835
X6.2008Y-2.2244
X6.2205Y-1.6091
X6.2402Y-2.2244
X6.248Y-2.57
X6.2972Y-1.9783
X6.316Y-2.416
X6.3277Y-3.0089
X6.338Y-2.682
X6.368Y-2.682
X6.415Y-3.005
X6.51Y-3.005
X6.6102Y-1.9547
X6.65Y-2.682
X6.682Y-2.682
X6.6988Y-1.9961
X6.7008Y-1.4764
X6.71Y-3.06
X6.71Y-3.094
X6.754Y-3.051
X6.876Y-3.0098
X6.976Y-3.002
X7.069Y-2.997
T2
X5.148Y-2.564
X5.148Y-2.6624
X5.148Y-2.7609
X5.148Y-2.8593
X7.1811Y-2.5669
X7.1811Y-2.6654
X7.1811Y-2.7638
X7.1811Y-2.8622
T3
X5.14Y-1.52
X5.14Y-1.62
X5.14Y-1.72
X5.14Y-1.82
X5.14Y-1.92
X5.14Y-2.02
X5.14Y-2.12
X5.14Y-2.22
X5.15Y-3.27
X5.15Y-4.27
X5.24Y-1.52
X5.24Y-1.62
X5.24Y-1.72
X5.24Y-1.82
X5.24Y-1.92
X5.24Y-2.02
X5.24Y-2.12
X5.24Y-2.22
X5.25Y-3.27
X5.25Y-4.27
X5.35Y-3.27
X5.35Y-4.27
X5.45Y-3.27
X5.45Y-4.27
X5.55Y-3.27
X5.55Y-4.27
X5.65Y-3.27
X5.65Y-4.27
X5.75Y-3.27
X5.75Y-4.27
X5.85Y-3.27
X5.85Y-4.27
X5.95Y-3.27
X5.95Y-4.27
X5.9756Y-2.937
X6.05Y-3.27
X6.05Y-4.27
X6.0732Y-2.5954
X6.0732Y-2.6954
X6.0732Y-2.7954
X6.0756Y-2.937
X6.1732Y-2.5954
X6.1732Y-2.6954
X6.1732Y-2.7954
X6.1756Y-2.937
X6.25Y-3.27
X6.25Y-4.27
X6.2756Y-2.937
X6.35Y-3.27
X6.35Y-4.27
X6.45Y-3.27
X6.45Y-4.27
X6.55Y-3.27
X6.55Y-4.27
X6.65Y-3.27
X6.65Y-4.27
X6.75Y-3.27
X6.75Y-4.27
X6.85Y-3.27
X6.85Y-4.27
X6.95Y-3.27
X6.95Y-4.27
X7.048Y-1.522
X7.048Y-1.622
X7.048Y-1.722
X7.048Y-1.822
X7.048Y-1.922
X7.048Y-2.022
X7.048Y-2.122
X7.048Y-2.222
X7.05Y-3.27
X7.05Y-4.27
X7.148Y-1.522
X7.148Y-1.622
X7.148Y-1.722
X7.148Y-1.822
X7.148Y-1.922
X7.148Y-2.022
X7.148Y-2.122
X7.148Y-2.222
X7.15Y-3.27
X7.15Y-4.27
T4
X5.104Y-4.507
X5.204Y-4.507
X5.304Y-4.507
X5.404Y-4.507
X5.504Y-4.507
X5.604Y-4.507
X5.704Y-4.507
X5.804Y-4.507
X6.489Y-4.507
X6.589Y-4.507
X6.689Y-4.507
X6.789Y-4.507
X6.889Y-4.507
X6.989Y-4.507
X7.089Y-4.507
X7.189Y-4.507
T5
X5.9638Y-4.5009
X6.0638Y-4.5009
X6.229Y-4.502
X6.329Y-4.502
T6
X6.314Y-2.7795
X6.814Y-2.7795
M30
